<svg xmlns="http://www.w3.org/2000/svg" viewBox="0 0 246 246"><title>dbForge_Studio_SQLDecryptor_SQLS</title><rect width="246" height="246" fill="#fff" opacity="0"/><polyline points="195 81.422 195 164.563 123 206.142 51 164.563 51 81.422 123 39.86 195 81.422" fill="#881adb"/><polyline points="123 39.86 51 81.422 123 123.001 123 123 123 39.859 123 39.86" fill="#a653e4"/><polyline points="123 122.999 51 164.561 123 206.141 123 123" fill="#5e11ce"/><polyline points="195 81.422 123 123.001 195 164.563 195 164.561 195 81.422" fill="#5e11ce"/><polyline points="123 39.859 123 123 195 81.422 123 39.86" fill="#8736db"/><polyline points="123 123.001 123 123.001 123 206.14 195 164.561 123 123" fill="#3d0bbd"/><path d="M146.0117,84.1729l-22.1211,12.769v19.57L80.4795,141.5771l12.5049,21.6587,8.959-5.1733-7.3311-12.6978,6.8242-3.94,7.3311,12.6976,8.959-5.1739-7.3308-12.6968,18.6682-10.779,16.9478,9.7869,22.12-12.7744V96.9424Zm11.7725,32.3383L146.0117,123.31l-11.7734-6.7989V102.916L146.0117,96.12l11.7725,6.7959Z" fill="#fff"/></svg>