<svg width="182" height="182" viewBox="0 0 182 182" fill="none" xmlns="http://www.w3.org/2000/svg">
<g clip-path="url(#clip0_4_548)">
<path d="M163 49.422V132.563L91 174.142L19 132.563V49.422L91 7.85999L163 49.422Z" fill="#881ADB"/>
<path d="M91 7.86001L19 49.422L91 91.001V91V7.85901V7.86001Z" fill="#A653E4"/>
<path d="M91 90.999L19 132.561L91 174.141V91" fill="#5E11CE"/>
<path d="M163 49.422L91 91.001L163 132.563V132.561V49.422Z" fill="#5E11CE"/>
<path d="M91 7.85901V91L163 49.422L91 7.86001" fill="#8736DB"/>
<path d="M91 91.001V174.14L163 132.561L91 91" fill="#3D0BBD"/>
<path d="M142.96 80.1294L124.544 69.4951L106.13 80.1294V95.4194L81.0478 109.894L72.9778 105.234L72.977 76.2871L86.22 68.6432L86.2191 47.3775L67.8027 36.7446L49.3887 47.3779L49.3867 68.6421L62.6291 76.2871L62.6307 105.236L49.39 112.882L49.3891 134.145L67.8051 144.777L86.2221 134.146L86.2206 118.854L111.302 104.38L119.371 109.038L119.372 157.756L129.72 151.78L129.718 109.038L142.96 101.394L142.96 80.1294ZM59.7354 53.3516L67.8027 48.6934L75.8711 53.3516L75.873 62.6685L67.803 67.3267L59.7347 62.6685L59.7354 53.3516ZM67.8047 132.83L59.7354 128.171L59.7373 118.855L67.8047 114.197L75.873 118.855L75.875 128.172L67.8047 132.83ZM132.613 95.4188L124.544 100.077L116.478 95.4198V86.103L124.544 81.4438L132.613 86.103V95.4188Z" fill="white"/>
</g>
<defs>
<clipPath id="clip0_4_548">
<rect width="182" height="182" fill="white"/>
</clipPath>
</defs>
</svg>
