<svg xmlns="http://www.w3.org/2000/svg" viewBox="0 0 246 246"><title>dbForge_DataCompare_MySQL</title><rect width="246" height="246" fill="#fff" opacity="0"/><polyline points="195 81.422 195 164.563 123 206.142 51 164.563 51 81.422 123 39.86 195 81.422" fill="#0091ff"/><polyline points="123 39.86 51 81.422 123 123.001 123 123 123 39.859 123 39.86" fill="#26a1ff"/><polyline points="123 122.999 51 164.561 123 206.141 123 123" fill="#0081ff"/><polyline points="195 81.422 123 123.001 195 164.563 195 164.561 195 81.422" fill="#0075ff"/><polyline points="123 39.859 123 123 195 81.422 123 39.86" fill="#1c89ff"/><polyline points="123 123.001 123 123.001 123 206.14 195 164.561 123 123" fill="#0061ff"/><path d="M144.207,104.7852,128.1729,114.04V82.0371L101.793,66.81,75.4121,82.0371v43.9507l26.3809,15.2339,16.0322-9.2583v32l26.3818,15.2344,26.3809-15.2344V120.0142ZM160.24,125.9878v10.4436l-16.0341,9.2551-16.0332-9.2545V125.9888l16.0341-9.2564ZM101.793,78.7568l16.0322,9.2554V98.4564L101.793,107.71,85.76,98.4573V88.0122Zm0,50.5157L85.76,120.0142v-9.61l16.0332,9.2527,16.0322-9.2532v9.61ZM144.207,167.249,128.1729,157.99v-9.6105l16.0332,9.2542,16.0341-9.2547V157.99Z" fill="#fff"/></svg>