<svg width="182" height="182" viewBox="0 0 182 182" fill="none" xmlns="http://www.w3.org/2000/svg">
<g clip-path="url(#clip0_4_429)">
<path d="M163 49.422V132.563L91 174.142L19 132.563V49.422L91 7.85999L163 49.422Z" fill="#881ADB"/>
<path d="M91 7.86001L19 49.422L91 91.001V91V7.85901V7.86001Z" fill="#A653E4"/>
<path d="M91 90.999L19 132.561L91 174.141V91" fill="#5E11CE"/>
<path d="M163 49.422L91 91.001L163 132.563V132.561V49.422Z" fill="#5E11CE"/>
<path d="M91 7.85901V91L163 49.422L91 7.86001" fill="#8736DB"/>
<path d="M91 91.001V174.14L163 132.561L91 91" fill="#3D0BBD"/>
<path d="M112.207 72.7852L96.1729 82.04V50.0371L69.793 34.81L43.4121 50.0371V93.9878L69.793 109.222L85.8252 99.9634V131.963L112.207 147.198L138.588 131.963V88.0142L112.207 72.7852ZM128.24 93.9878V104.431L112.206 113.686L96.1727 104.432V93.9888L112.207 84.7324L128.24 93.9878ZM69.793 46.7568L85.8252 56.0122V66.4564L69.793 75.71L53.76 66.4573V56.0122L69.793 46.7568ZM69.793 97.2725L53.76 88.0142V78.4042L69.7932 87.6569L85.8254 78.4037V88.0137L69.793 97.2725ZM112.207 135.249L96.1729 125.99V116.38L112.206 125.634L128.24 116.379V125.99L112.207 135.249Z" fill="white"/>
</g>
<defs>
<clipPath id="clip0_4_429">
<rect width="182" height="182" fill="white"/>
</clipPath>
</defs>
</svg>
