<svg width="182" height="182" viewBox="0 0 182 182" fill="none" xmlns="http://www.w3.org/2000/svg">
<g clip-path="url(#clip0_4_448)">
<path d="M163 49.422V132.563L91 174.142L19 132.563V49.422L91 7.85999L163 49.422Z" fill="#881ADB"/>
<path d="M91 7.86001L19 49.422L91 91.001V91V7.85901V7.86001Z" fill="#A653E4"/>
<path d="M91 90.999L19 132.561L91 174.141V91" fill="#5E11CE"/>
<path d="M163 49.422L91 91.001L163 132.563V132.561V49.422Z" fill="#5E11CE"/>
<path d="M91 7.85901V91L163 49.422L91 7.86001" fill="#8736DB"/>
<path d="M91 91.001V174.14L163 132.561L91 91" fill="#3D0BBD"/>
<path d="M96.174 118.893V56.127H85.826V118.893L74.498 107.566L67.183 114.882L91 138.7L114.818 114.882L107.502 107.566L96.174 118.893Z" fill="white"/>
<path d="M72.122 80.576L65.027 87.67V56.127H54.68V87.67L47.586 80.576L40.269 87.892L59.854 107.477L79.438 87.892L72.122 80.576Z" fill="white"/>
<path d="M134.414 80.576L127.319 87.67V56.127H116.972V87.669L109.879 80.576L102.562 87.892L122.146 107.477L141.729 87.892L134.414 80.576Z" fill="white"/>
</g>
<defs>
<clipPath id="clip0_4_448">
<rect width="182" height="182" fill="white"/>
</clipPath>
</defs>
</svg>
