<svg xmlns="http://www.w3.org/2000/svg" viewBox="0 0 246 246"><title>dbForge_DataCompare_Oracle</title><rect width="246" height="246" fill="#fff" opacity="0"/><polyline points="194.732 81.718 194.732 164.859 122.731 206.438 50.732 164.859 50.732 81.718 122.731 40.157 194.732 81.718" fill="#ed4842"/><polyline points="122.731 40.157 50.732 81.718 122.731 123.297 122.731 40.155 122.731 40.157" fill="#f0635e"/><polyline points="122.731 123.297 50.732 164.859 122.731 206.438 122.731 123.297" fill="#e11917"/><polyline points="194.732 81.718 122.731 123.297 194.732 164.859 194.732 81.718" fill="#e52824"/><polyline points="122.731 40.155 122.731 123.297 194.732 81.718 122.731 40.157" fill="#e93634"/><polyline points="122.731 123.297 122.731 123.297 122.731 206.438 194.732 164.859 122.731 123.297" fill="#d30e0d"/><path d="M144.207,104.7852,128.1729,114.04V82.0371L101.793,66.81,75.4121,82.0371v43.9507l26.3809,15.2339,16.0322-9.2583v32l26.3818,15.2344,26.3809-15.2344V120.0142ZM160.24,125.9878v10.4436l-16.0341,9.2551-16.0332-9.2545V125.9888l16.0341-9.2564ZM101.793,78.7568l16.0322,9.2554V98.4564L101.793,107.71,85.76,98.4573V88.0122Zm0,50.5157L85.76,120.0142v-9.61l16.0332,9.2527,16.0322-9.2532v9.61ZM144.207,167.249,128.1729,157.99v-9.6105l16.0332,9.2542,16.0341-9.2547V157.99Z" fill="#fff"/></svg>