<svg xmlns="http://www.w3.org/2000/svg" viewBox="0 0 246 246"><title>dbForge_Documenter_SQLS</title><rect width="246" height="246" fill="#fff" opacity="0"/><polyline points="195 81.422 195 164.563 123 206.142 51 164.563 51 81.422 123 39.86 195 81.422" fill="#881adb"/><polyline points="123 39.86 51 81.422 123 123.001 123 123 123 39.859 123 39.86" fill="#a653e4"/><polyline points="123 122.999 51 164.561 123 206.141 123 123" fill="#5e11ce"/><polyline points="195 81.422 123 123.001 195 164.563 195 164.561 195 81.422" fill="#5e11ce"/><polyline points="123 39.859 123 123 195 81.422 123 39.86" fill="#8736db"/><polyline points="123 123.001 123 123.001 123 206.14 195 164.561 123 123" fill="#3d0bbd"/><path d="M117.6133,115.8818h45.626V105.5342H98.5029a7.1191,7.1191,0,1,1,0-14.2383h45.626V80.9487H98.5029a17.4666,17.4666,0,1,0,0,34.9331H101.68a17.3023,17.3023,0,0,0,0,14.2373H98.5029a17.4668,17.4668,0,1,0,0,34.9336h45.626V154.7051H98.5029a7.1191,7.1191,0,1,1,0-14.2383h64.7364V130.1191h-45.626a7.1187,7.1187,0,1,1,0-14.2373Z" fill="#fff"/></svg>