<svg width="182" height="182" viewBox="0 0 182 182" fill="none" xmlns="http://www.w3.org/2000/svg">
<g clip-path="url(#clip0_4_459)">
<path d="M163 49.422V132.563L91 174.142L19 132.563V49.422L91 7.85999L163 49.422Z" fill="#881ADB"/>
<path d="M91 7.86001L19 49.422L91 91.001V91V7.85901V7.86001Z" fill="#A653E4"/>
<path d="M91 90.999L19 132.561L91 174.141V91" fill="#5E11CE"/>
<path d="M163 49.422L91 91.001L163 132.563V132.561V49.422Z" fill="#5E11CE"/>
<path d="M91 7.85901V91L163 49.422L91 7.86001" fill="#8736DB"/>
<path d="M91 91.001V174.14L163 132.561L91 91" fill="#3D0BBD"/>
<path d="M96.1738 62.9736H85.8262V112.39H96.1738V62.9736Z" fill="white"/>
<path d="M77.2275 69.3525H66.8809V112.39H77.2275V69.3525Z" fill="white"/>
<path d="M58.2822 87.6592H47.9346V112.39H58.2822V87.6592Z" fill="white"/>
<path d="M115.119 69.3525H104.771V112.39H115.119V69.3525Z" fill="white"/>
<path d="M134.064 87.6592H123.718V112.39H134.064V87.6592Z" fill="white"/>
<path d="M96.1738 47.479H85.8262V54.938H96.1738V47.479Z" fill="white"/>
</g>
<defs>
<clipPath id="clip0_4_459">
<rect width="182" height="182" fill="white"/>
</clipPath>
</defs>
</svg>
