<svg xmlns="http://www.w3.org/2000/svg" viewBox="0 0 246 246"><title>dbForge_SQLComplete_SQLS</title><rect width="246" height="246" fill="#fff" opacity="0"/><polyline points="195 81.422 195 164.563 123 206.142 51 164.563 51 81.422 123 39.86 195 81.422" fill="#881adb"/><polyline points="123 39.86 51 81.422 123 123.001 123 123 123 39.859 123 39.86" fill="#a653e4"/><polyline points="123 122.999 51 164.561 123 206.141 123 123" fill="#5e11ce"/><polyline points="195 81.422 123 123.001 195 164.563 195 164.561 195 81.422" fill="#5e11ce"/><polyline points="123 39.859 123 123 195 81.422 123 39.86" fill="#8736db"/><polyline points="123 123.001 123 123.001 123 206.14 195 164.561 123 123" fill="#3d0bbd"/><polygon points="167.104 96.341 156.757 96.341 156.757 117.827 101.734 117.827 117.078 102.482 109.763 95.166 81.928 123 109.763 150.835 117.078 143.519 101.734 128.174 167.104 128.174 167.104 96.341" fill="#fff"/></svg>