<svg width="182" height="182" viewBox="0 0 182 182" fill="none" xmlns="http://www.w3.org/2000/svg">
<g clip-path="url(#clip0_4_388)">
<path d="M163.484 49.651V132.901L91.483 174.548L19.484 132.901V49.651L91.483 8.048L163.484 49.651Z" fill="#083DB8"/>
<path d="M91.482 8.048L19.484 49.661L91.482 91.296V8.048Z" fill="#007FE3"/>
<path d="M91.482 174.544V91.296L19.484 132.913L91.482 174.548L91.488 174.544H91.482Z" fill="#080F6B"/>
<path d="M163.484 49.659V132.908L91.483 91.293L163.484 49.659Z" fill="#0C1578"/>
<path d="M91.482 91.296L163.479 49.661L91.482 8.048V91.296Z" fill="#0057D1"/>
<path d="M91.482 174.544L163.479 132.913L91.482 91.296V174.544Z" fill="#070A4D"/>
<path d="M112.207 72.7852L96.1729 82.04V50.0371L69.793 34.81L43.4121 50.0371V93.9878L69.793 109.222L85.8252 99.9634V131.963L112.207 147.198L138.588 131.963V88.0142L112.207 72.7852ZM128.24 93.9878V104.431L112.206 113.686L96.1727 104.432V93.9888L112.207 84.7324L128.24 93.9878ZM69.793 46.7568L85.8252 56.0122V66.4564L69.793 75.71L53.76 66.4573V56.0122L69.793 46.7568ZM69.793 97.2725L53.76 88.0142V78.4042L69.7932 87.6569L85.8254 78.4037V88.0137L69.793 97.2725ZM112.207 135.249L96.1729 125.99V116.38L112.206 125.634L128.24 116.379V125.99L112.207 135.249Z" fill="white"/>
</g>
<defs>
<clipPath id="clip0_4_388">
<rect width="182" height="182" fill="white"/>
</clipPath>
</defs>
</svg>
