<svg width="182" height="182" viewBox="0 0 182 182" fill="none" xmlns="http://www.w3.org/2000/svg">
<g clip-path="url(#clip0_4_491)">
<path d="M163 49.422V132.563L91 174.142L19 132.563V49.422L91 7.85999L163 49.422Z" fill="#881ADB"/>
<path d="M91 7.86001L19 49.422L91 91.001V91V7.85901V7.86001Z" fill="#A653E4"/>
<path d="M91 90.999L19 132.561L91 174.141V91" fill="#5E11CE"/>
<path d="M163 49.422L91 91.001L163 132.563V132.561V49.422Z" fill="#5E11CE"/>
<path d="M91 7.85901V91L163 49.422L91 7.86001" fill="#8736DB"/>
<path d="M91 91.001V174.14L163 132.561L91 91" fill="#3D0BBD"/>
<path d="M85.8867 36.3257V59.9121L96.2344 65.8838V54.2451L125.449 71.1064V110.886L115.955 116.368V86.3257L66.0459 57.5205V81.0947L76.3926 87.0664V75.44L105.607 92.3013L105.608 122.343L96.1123 127.828V107.52L46.2031 78.7153V116.859L90.999 142.729L135.797 116.859V65.1309L85.8867 36.3257ZM56.9727 111.13L56.5508 110.886V96.6343L85.7646 113.496L85.7656 127.758L56.9727 111.13Z" fill="white"/>
</g>
<defs>
<clipPath id="clip0_4_491">
<rect width="182" height="182" fill="white"/>
</clipPath>
</defs>
</svg>
