<svg width="182" height="182" viewBox="0 0 182 182" fill="none" xmlns="http://www.w3.org/2000/svg">
<g clip-path="url(#clip0_4_529)">
<path d="M163 49.422V132.563L91 174.142L19 132.563V49.422L91 7.85999L163 49.422Z" fill="#881ADB"/>
<path d="M91 7.86001L19 49.422L91 91.001V91V7.85901V7.86001Z" fill="#A653E4"/>
<path d="M91 90.999L19 132.561L91 174.141V91" fill="#5E11CE"/>
<path d="M163 49.422L91 91.001L163 132.563V132.561V49.422Z" fill="#5E11CE"/>
<path d="M91 7.85901V91L163 49.422L91 7.86001" fill="#8736DB"/>
<path d="M91 91.001V174.14L163 132.561L91 91" fill="#3D0BBD"/>
<path d="M67.912 104.328L78.26 98.354V83.644L91 76.287V64.34L67.912 77.668V104.328Z" fill="white"/>
<path d="M133.515 109.568V66.45L91 41.9082L48.4854 66.45V115.542L91 140.094L128.342 118.529L157.825 135.549L163 132.562V126.589L133.515 109.568ZM123.168 109.568L91 128.145L58.833 109.568V72.4238L91 53.8555L123.168 72.4248V109.568Z" fill="white"/>
</g>
<defs>
<clipPath id="clip0_4_529">
<rect width="182" height="182" fill="white"/>
</clipPath>
</defs>
</svg>
