<svg xmlns="http://www.w3.org/2000/svg" viewBox="0 0 246 246"><title>dbForge_DataGenerator_SQLS</title><rect width="246" height="246" fill="#fff" opacity="0"/><polyline points="195 81.422 195 164.563 123 206.142 51 164.563 51 81.422 123 39.86 195 81.422" fill="#881adb"/><polyline points="123 39.86 51 81.422 123 123.001 123 123 123 39.859 123 39.86" fill="#a653e4"/><polyline points="123 122.999 51 164.561 123 206.141 123 123" fill="#5e11ce"/><polyline points="195 81.422 123 123.001 195 164.563 195 164.561 195 81.422" fill="#5e11ce"/><polyline points="123 39.859 123 123 195 81.422 123 39.86" fill="#8736db"/><polyline points="123 123.001 123 123.001 123 206.14 195 164.561 123 123" fill="#3d0bbd"/><path d="M138.6592,171.3257H107.3408V156.4668l-5.4931-3.1724-12.8692,7.43L73.3193,133.6021l12.8682-7.4292v-6.3448l-12.8682-7.4287,15.6592-27.123,12.8643,7.4282,5.498-3.1734V74.6748h31.3184V89.5312l5.498,3.1734,12.8643-7.4282,15.6582,27.123-12.8672,7.4287v6.3448l12.8672,7.4292-15.6582,27.1225-12.8692-7.43-5.4931,3.1729Zm-20.9707-10.3472h10.623V150.4937l15.8408-9.148,9.0811,5.2441,5.3115-9.2-9.08-5.2426V113.8545l9.08-5.2427-5.3115-9.2-9.0762,5.2417-15.8457-9.1484V85.0225h-10.623V95.5049l-15.8457,9.1484-9.0772-5.2417-5.3115,9.2,9.0811,5.2427V132.147L87.4541,137.39l5.3125,9.2,9.0811-5.2441,15.8408,9.1475Z" fill="#fff"/><polygon points="131.59 127.959 123 132.919 114.41 127.959 114.41 118.04 123 113.082 131.59 118.04 131.59 127.959" fill="#fff"/></svg>