<svg width="182" height="182" viewBox="0 0 182 182" fill="none" xmlns="http://www.w3.org/2000/svg">
<g clip-path="url(#clip0_4_557)">
<path d="M163 49.422V132.563L91 174.142L19 132.563V49.422L91 7.85999L163 49.422Z" fill="#881ADB"/>
<path d="M91 7.86001L19 49.422L91 91.001V91V7.85901V7.86001Z" fill="#A653E4"/>
<path d="M91 90.999L19 132.561L91 174.141V91" fill="#5E11CE"/>
<path d="M163 49.422L91 91.001L163 132.563V132.561V49.422Z" fill="#5E11CE"/>
<path d="M91 7.85901V91L163 49.422L91 7.86001" fill="#8736DB"/>
<path d="M91 91.001V174.14L163 132.561L91 91" fill="#3D0BBD"/>
<path d="M114.012 52.1729L91.8906 64.9419V84.5119L48.4795 109.577L60.9844 131.236L69.9434 126.063L62.6123 113.365L69.4365 109.425L76.7676 122.122L85.7266 116.948L78.3958 104.252L97.064 93.4726L114.012 103.26L136.132 90.4851V64.9424L114.012 52.1729ZM125.784 84.5112L114.012 91.31L102.238 84.5111V70.916L114.012 64.12L125.784 70.9159V84.5112Z" fill="white"/>
</g>
<defs>
<clipPath id="clip0_4_557">
<rect width="182" height="182" fill="white"/>
</clipPath>
</defs>
</svg>
