<svg width="182" height="182" viewBox="0 0 182 182" fill="none" xmlns="http://www.w3.org/2000/svg">
<g clip-path="url(#clip0_4_482)">
<path d="M163 49.422V132.563L91 174.142L19 132.563V49.422L91 7.85999L163 49.422Z" fill="#881ADB"/>
<path d="M91 7.86001L19 49.422L91 91.001V91V7.85901V7.86001Z" fill="#A653E4"/>
<path d="M91 90.999L19 132.561L91 174.141V91" fill="#5E11CE"/>
<path d="M163 49.422L91 91.001L163 132.563V132.561V49.422Z" fill="#5E11CE"/>
<path d="M91 7.85901V91L163 49.422L91 7.86001" fill="#8736DB"/>
<path d="M91 91.001V174.14L163 132.561L91 91" fill="#3D0BBD"/>
<path d="M132.359 61.146L90.9989 85.028L52.2269 107.413V74.587L70.3069 85.027L80.6529 79.054L49.6409 61.146L41.8799 65.626V116.374L49.6409 120.854L129.772 74.587V107.413L111.692 96.974L101.346 102.948L132.359 120.854L140.12 116.374V65.626L132.359 61.146Z" fill="white"/>
</g>
<defs>
<clipPath id="clip0_4_482">
<rect width="182" height="182" fill="white"/>
</clipPath>
</defs>
</svg>
