<svg width="182" height="182" viewBox="0 0 182 182" fill="none" xmlns="http://www.w3.org/2000/svg">
<g clip-path="url(#clip0_4_406)">
<path d="M163 49.422V132.563L91 174.142L19 132.563V49.422L91 7.85999L163 49.422Z" fill="#881ADB"/>
<path d="M91 7.86001L19 49.422L91 91.001V91V7.85901V7.86001Z" fill="#A653E4"/>
<path d="M91 90.999L19 132.561L91 174.141V91" fill="#5E11CE"/>
<path d="M163 49.422L91 91.001L163 132.563V132.561V49.422Z" fill="#5E11CE"/>
<path d="M91 7.85901V91L163 49.422L91 7.86001" fill="#8736DB"/>
<path d="M91 91.001V174.14L163 132.561L91 91" fill="#3D0BBD"/>
<path d="M91.002 50.398L126.162 70.691L135.356 65.38L91.002 39.782L46.646 65.38L55.841 70.691L91.002 50.398Z" fill="white"/>
<path d="M90.998 131.603L55.838 111.31L46.644 116.62L90.998 142.219L135.353 116.62L126.159 111.31L90.998 131.603Z" fill="white"/>
<path d="M105.532 95.4639H76.4678V105.811H105.532V95.4639Z" fill="white"/>
<path d="M105.532 76.1904H76.4678V86.5381H105.532V76.1904Z" fill="white"/>
</g>
<defs>
<clipPath id="clip0_4_406">
<rect width="182" height="182" fill="white"/>
</clipPath>
</defs>
</svg>
