<svg xmlns="http://www.w3.org/2000/svg" viewBox="0 0 246 246"><title>dbForge_QueryBuilder_SQLS</title><rect width="246" height="246" fill="#fff" opacity="0"/><polyline points="195 81.422 195 164.563 123 206.142 51 164.563 51 81.422 123 39.86 195 81.422" fill="#881adb"/><polyline points="123 39.86 51 81.422 123 123.001 123 123 123 39.859 123 39.86" fill="#a653e4"/><polyline points="123 122.999 51 164.561 123 206.141 123 123" fill="#5e11ce"/><polyline points="195 81.422 123 123.001 195 164.563 195 164.561 195 81.422" fill="#5e11ce"/><polyline points="123 39.859 123 123 195 81.422 123 39.86" fill="#8736db"/><polyline points="123 123.001 123 123.001 123 206.14 195 164.561 123 123" fill="#3d0bbd"/><path d="M162.2529,83.748H106.4658v22.7188H83.7471V162.252h55.7852V139.5332h22.7207Zm-33.0674,68.1568H94.0947v-35.09h12.3711v22.7187h22.72Zm0-22.7193H116.8135v-12.371h12.3721Zm22.72,0h-12.373V106.4668H116.8135V94.0952h35.0918Z" fill="#fff"/></svg>