<svg width="182" height="182" viewBox="0 0 182 182" fill="none" xmlns="http://www.w3.org/2000/svg">
<g clip-path="url(#clip0_4_510)">
<path d="M163 49.422V132.563L91 174.142L19 132.563V49.422L91 7.85999L163 49.422Z" fill="#881ADB"/>
<path d="M91 7.86001L19 49.422L91 91.001V91V7.85901V7.86001Z" fill="#A653E4"/>
<path d="M91 90.999L19 132.561L91 174.141V91" fill="#5E11CE"/>
<path d="M163 49.422L91 91.001L163 132.563V132.561V49.422Z" fill="#5E11CE"/>
<path d="M91 7.85901V91L163 49.422L91 7.86001" fill="#8736DB"/>
<path d="M91 91.001V174.14L163 132.561L91 91" fill="#3D0BBD"/>
<path d="M100.953 126.255H89.397L68.159 83.76L58.409 103.257H36.251V92.904H52.013L68.159 60.638L100.953 126.255Z" fill="white"/>
<path d="M146.625 93.757V104.122H120.995L110.821 83.76L101.06 103.316L95.265 91.743L110.821 60.638L127.392 93.757H146.625Z" fill="white"/>
</g>
<defs>
<clipPath id="clip0_4_510">
<rect width="182" height="182" fill="white"/>
</clipPath>
</defs>
</svg>
