<svg xmlns="http://www.w3.org/2000/svg" viewBox="0 0 246 246"><title>dbForge_DevOps_PowerShell_SQLS</title><g id="Layer_2" data-name="Layer 2"><g id="Layer_1-2" data-name="Layer 1"><rect width="246" height="246" fill="#fff" opacity="0"/><polyline points="195 74.422 195 157.563 123 199.142 51 157.563 51 74.422 123 32.86 195 74.422" fill="#881adb"/><polyline points="123 32.86 51 74.422 123 116.001 123 116 123 32.859 123 32.86" fill="#a653e4"/><polyline points="123 115.999 51 157.561 123 199.141 123 116" fill="#5e11ce"/><polyline points="195 74.422 123 116.001 195 157.563 195 157.561 195 74.422" fill="#5e11ce"/><polyline points="123 32.859 123 116 195 74.422 123 32.86" fill="#8736db"/><polyline points="123 116.001 123 116.001 123 199.14 195 157.561 123 116" fill="#3d0bbd"/><path d="M130.3157,100.9036l17.3879-17.3895,17.3878,17.39-7.3167,7.3167L147.7036,98.1492,137.6325,108.22Zm-21.9484,21.9485L98.2962,132.9232,88.2251,122.8521l-7.3159,7.3158,17.387,17.387,17.3878-17.3861Zm39.3363,10.0711L98.2953,83.515,66.2775,115.5362l7.3158,7.3159L98.2962,98.1492l24.7049,24.7029,24.7025,24.7028,32.0187-32.0187-7.3155-7.3159Z" fill="#fff"/></g></g></svg>