<svg width="182" height="182" viewBox="0 0 182 182" fill="none" xmlns="http://www.w3.org/2000/svg">
<g clip-path="url(#clip0_4_627)">
<path d="M163 49.422V132.563L91 174.142L19 132.563V49.422L91 7.85999L163 49.422Z" fill="#0091FF"/>
<path d="M91 7.86001L19 49.422L91 91.001V91V7.85901V7.86001Z" fill="#26A1FF"/>
<path d="M91 90.999L19 132.561L91 174.141V91" fill="#0081FF"/>
<path d="M163 49.422L91 91.001L163 132.563V132.561V49.422Z" fill="#0075FF"/>
<path d="M91 7.85901V91L163 49.422L91 7.86001" fill="#1C89FF"/>
<path d="M91 91.001V174.14L163 132.561L91 91" fill="#0061FF"/>
<path d="M130.253 51.748H74.4658V74.4668H51.7471V130.252H107.532V107.533H130.253L130.253 51.748ZM97.1855 119.905H62.0947V84.8148H74.4658V107.533H97.1858L97.1855 119.905ZM97.1855 97.1855H84.8135V84.8145H97.1856L97.1855 97.1855ZM119.905 97.1855H107.532V74.4668H84.8135V62.0952H119.905L119.905 97.1855Z" fill="white"/>
</g>
<defs>
<clipPath id="clip0_4_627">
<rect width="182" height="182" fill="white"/>
</clipPath>
</defs>
</svg>
