<svg xmlns="http://www.w3.org/2000/svg" viewBox="0 0 246 246"><title>dbForge_Studio_Oracle</title><rect width="246" height="246" fill="#fff" opacity="0"/><polyline points="194.732 81.718 194.732 164.859 122.731 206.438 50.732 164.859 50.732 81.718 122.731 40.157 194.732 81.718" fill="#ed4842"/><polyline points="122.731 40.157 50.732 81.718 122.731 123.297 122.731 40.155 122.731 40.157" fill="#f0635e"/><polyline points="122.731 123.297 50.732 164.859 122.731 206.438 122.731 123.297" fill="#e11917"/><polyline points="194.732 81.718 122.731 123.297 194.732 164.859 194.732 81.718" fill="#e52824"/><polyline points="122.731 40.155 122.731 123.297 194.732 81.718 122.731 40.157" fill="#e93634"/><polyline points="122.731 123.297 122.731 123.297 122.731 206.438 194.732 164.859 122.731 123.297" fill="#d30e0d"/><path d="M144.8447,153.83H88.3271V143.4824h56.5176a7.6538,7.6538,0,1,0,0-15.3076H101.1553a18.0017,18.0017,0,1,1,0-36.0034h56.5176v10.3472H101.1553a7.6543,7.6543,0,1,0,0,15.3085h43.6894a18.0013,18.0013,0,1,1,0,36.0025Z" fill="#fff"/></svg>