<svg xmlns="http://www.w3.org/2000/svg" viewBox="0 0 246 246"><title>dbForge_SourceControl_SQLS</title><rect width="246" height="246" fill="#fff" opacity="0"/><polyline points="195 81.422 195 164.563 123 206.142 51 164.563 51 81.422 123 39.86 195 81.422" fill="#881adb"/><polyline points="123 39.86 51 81.422 123 123.001 123 123 123 39.859 123 39.86" fill="#a653e4"/><polyline points="123 122.999 51 164.561 123 206.141 123 123" fill="#5e11ce"/><polyline points="195 81.422 123 123.001 195 164.563 195 164.561 195 81.422" fill="#5e11ce"/><polyline points="123 39.859 123 123 195 81.422 123 39.86" fill="#8736db"/><polyline points="123 123.001 123 123.001 123 206.14 195 164.561 123 123" fill="#3d0bbd"/><path d="M174.96,112.1294l-18.4161-10.6343L138.13,112.1294v15.29l-25.0822,14.4741-8.07-4.6594-.0008-28.947,13.243-7.6439-.0009-21.2657L99.8027,68.7446,81.3887,79.3779l-.002,21.2642,13.2424,7.645.0016,28.9487L81.39,144.8818l-.0009,21.2628,18.416,10.6328,18.417-10.6318-.0015-15.2912L143.3024,136.38l8.0687,4.6583.001,48.7178L161.72,183.78l-.0018-42.7423,13.2422-7.6435ZM91.7354,85.3516l8.0673-4.6582,8.0684,4.6582.0019,9.3169-8.07,4.6582-8.0683-4.6582ZM99.8047,164.83l-8.0693-4.6592.0019-9.3154,8.0674-4.6587,8.0683,4.6587.002,9.3164Zm64.8086-37.4112-8.0694,4.6582-8.0664-4.6572V118.103l8.0664-4.6592,8.0694,4.6592Z" fill="#fff"/></svg>