<svg xmlns="http://www.w3.org/2000/svg" viewBox="0 0 246 246"><title>dbForge_DataCompare_PostgreSQL</title><rect width="246" height="246" fill="#fff" opacity="0"/><polygon points="195.484 81.651 195.484 164.901 123.483 206.548 51.484 164.901 51.484 81.651 123.483 40.048 195.484 81.651" fill="#083db8"/><polygon points="123.482 40.048 51.484 81.661 123.482 123.296 123.482 40.048" fill="#007fe3"/><polygon points="123.482 206.544 123.482 123.296 51.484 164.913 123.482 206.548 123.488 206.544 123.482 206.544" fill="#080f6b"/><polygon points="195.484 81.659 195.484 164.908 123.483 123.293 195.484 81.659" fill="#0c1578"/><polygon points="123.482 123.296 195.479 81.661 123.482 40.048 123.482 123.296" fill="#0057d1"/><polygon points="123.482 206.544 195.479 164.913 123.482 123.296 123.482 206.544" fill="#070a4d"/><path d="M144.207,104.7852,128.1729,114.04V82.0371L101.793,66.81,75.4121,82.0371v43.9507l26.3809,15.2339,16.0322-9.2583v32l26.3818,15.2344,26.3809-15.2344V120.0142ZM160.24,125.9878v10.4436l-16.0341,9.2551-16.0332-9.2545V125.9888l16.0341-9.2564ZM101.793,78.7568l16.0322,9.2554V98.4564L101.793,107.71,85.76,98.4573V88.0122Zm0,50.5157L85.76,120.0142v-9.61l16.0332,9.2527,16.0322-9.2532v9.61ZM144.207,167.249,128.1729,157.99v-9.6105l16.0332,9.2542,16.0341-9.2547V157.99Z" fill="#fff"/></svg>