<svg xmlns="http://www.w3.org/2000/svg" viewBox="0 0 246 246"><title>dbForge_Studio_MySQL</title><rect width="246" height="246" fill="#fff" opacity="0"/><polyline points="195 81.422 195 164.563 123 206.142 51 164.563 51 81.422 123 39.86 195 81.422" fill="#0091ff"/><polyline points="123 39.86 51 81.422 123 123.001 123 123 123 39.859 123 39.86" fill="#26a1ff"/><polyline points="123 122.999 51 164.561 123 206.141 123 123" fill="#0081ff"/><polyline points="195 81.422 123 123.001 195 164.563 195 164.561 195 81.422" fill="#0075ff"/><polyline points="123 39.859 123 123 195 81.422 123 39.86" fill="#1c89ff"/><polyline points="123 123.001 123 123.001 123 206.14 195 164.561 123 123" fill="#0061ff"/><path d="M144.8447,153.83H88.3271V143.4824h56.5176a7.6538,7.6538,0,1,0,0-15.3076H101.1553a18.0017,18.0017,0,1,1,0-36.0034h56.5176v10.3472H101.1553a7.6543,7.6543,0,1,0,0,15.3085h43.6894a18.0013,18.0013,0,1,1,0,36.0025Z" fill="#fff"/></svg>