<svg xmlns="http://www.w3.org/2000/svg" viewBox="0 0 246 246"><title>dbForge_Search_SQLS</title><rect width="246" height="246" fill="#fff" opacity="0"/><polyline points="195 81.422 195 164.563 123 206.142 51 164.563 51 81.422 123 39.86 195 81.422" fill="#881adb"/><polyline points="123 39.86 51 81.422 123 123.001 123 123 123 39.859 123 39.86" fill="#a653e4"/><polyline points="123 122.999 51 164.561 123 206.141 123 123" fill="#5e11ce"/><polyline points="195 81.422 123 123.001 195 164.563 195 164.561 195 81.422" fill="#5e11ce"/><polyline points="123 39.859 123 123 195 81.422 123 39.86" fill="#8736db"/><polyline points="123 123.001 123 123.001 123 206.14 195 164.561 123 123" fill="#3d0bbd"/><polygon points="99.912 136.328 110.26 130.354 110.26 115.644 123 108.287 123 96.34 99.912 109.668 99.912 136.328" fill="#fff"/><path d="M165.5146,141.5681V98.45L123,73.9082,80.4854,98.45V147.542L123,172.0938l37.3416-21.5644,29.4836,17.02L195,164.5625v-5.9736Zm-10.3466,0L123,160.145,90.833,141.5684V104.4238L123,85.8555l32.168,18.5693Z" fill="#fff"/></svg>