<svg xmlns="http://www.w3.org/2000/svg" viewBox="0 0 246 246"><title>dbForge_ShemaCompare_SQLS</title><rect width="246" height="246" fill="#fff" opacity="0"/><polyline points="195 81.422 195 164.563 123 206.142 51 164.563 51 81.422 123 39.86 195 81.422" fill="#881adb"/><polyline points="123 39.86 51 81.422 123 123.001 123 123 123 39.859 123 39.86" fill="#a653e4"/><polyline points="123 122.999 51 164.561 123 206.141 123 123" fill="#5e11ce"/><polyline points="195 81.422 123 123.001 195 164.563 195 164.561 195 81.422" fill="#5e11ce"/><polyline points="123 39.859 123 123 195 81.422 123 39.86" fill="#8736db"/><polyline points="123 123.001 123 123.001 123 206.14 195 164.561 123 123" fill="#3d0bbd"/><path d="M166.72,79.2793H117.8262v38.5474H79.2783v48.894h48.8955V128.1738H166.72ZM156.373,89.6265v8.9262H128.1738V89.6265ZM89.626,156.374v-8.9272h28.2v8.9272Zm28.2-19.2744h-28.2v-8.9258h28.2Zm10.3476-19.2729V108.9H156.373v8.9268Z" fill="#fff"/></svg>