<svg xmlns="http://www.w3.org/2000/svg" viewBox="0 0 246 246"><title>dbForge_IndexManager_SQLS</title><rect width="246" height="246" fill="#fff" opacity="0"/><polyline points="195 81.422 195 164.563 123 206.142 51 164.563 51 81.422 123 39.86 195 81.422" fill="#881adb"/><polyline points="123 39.86 51 81.422 123 123.001 123 123 123 39.859 123 39.86" fill="#a653e4"/><polyline points="123 122.999 51 164.561 123 206.141 123 123" fill="#5e11ce"/><polyline points="195 81.422 123 123.001 195 164.563 195 164.561 195 81.422" fill="#5e11ce"/><polyline points="123 39.859 123 123 195 81.422 123 39.86" fill="#8736db"/><polyline points="123 123.001 123 123.001 123 206.14 195 164.561 123 123" fill="#3d0bbd"/><polygon points="88.551 128.634 88.551 142.886 88.972 143.13 88.973 143.13 117.766 159.758 117.765 145.496 88.551 128.634" fill="none"/><path d="M117.8867,68.3257V91.9121l10.3477,5.9717V86.2451l29.2148,16.8613v39.7793l-9.4941,5.4825V118.3257L98.0459,89.5205v23.5742l10.3467,5.9717V107.44l29.2148,16.8613.001,30.042-9.4961,5.4843V139.5205L78.2031,110.7153v38.1441l44.7959,25.87,44.7979-25.87V97.1309ZM88.9727,143.13h-.001l-.4209-.2437V128.6343l29.2138,16.8618.001,14.2617Z" fill="#fff"/></svg>