<svg xmlns="http://www.w3.org/2000/svg" viewBox="0 0 246 246"><title>dbForge_CompoareBundle_MySQL</title><rect width="246" height="246" fill="#fff" opacity="0"/><polyline points="195 81.422 195 164.563 123 206.142 51 164.563 51 81.422 123 39.86 195 81.422" fill="#0091ff"/><polyline points="123 39.86 51 81.422 123 123.001 123 123 123 39.859 123 39.86" fill="#26a1ff"/><polyline points="123 122.999 51 164.561 123 206.141 123 123" fill="#0081ff"/><polyline points="195 81.422 123 123.001 195 164.563 195 164.561 195 81.422" fill="#0075ff"/><polyline points="123 39.859 123 123 195 81.422 123 39.86" fill="#1c89ff"/><polyline points="123 123.001 123 123.001 123 206.14 195 164.561 123 123" fill="#0061ff"/><polygon points="123.002 82.398 158.162 102.691 167.356 97.38 123.002 71.782 78.646 97.38 87.841 102.691 123.002 82.398" fill="#fff"/><polygon points="122.998 163.603 87.838 143.31 78.644 148.62 122.998 174.219 167.353 148.62 158.159 143.31 122.998 163.603" fill="#fff"/><rect x="108.4678" y="127.4639" width="29.0644" height="10.3471" fill="#fff"/><rect x="108.4678" y="108.1904" width="29.0644" height="10.3477" fill="#fff"/></svg>