<svg xmlns="http://www.w3.org/2000/svg" viewBox="0 0 246 246"><title>dbForge_Fusion_SQLS</title><rect width="246" height="246" fill="#fff" opacity="0"/><polyline points="195 81.422 195 164.563 123 206.142 51 164.563 51 81.422 123 39.86 195 81.422" fill="#881adb"/><polyline points="123 39.86 51 81.422 123 123.001 123 123 123 39.859 123 39.86" fill="#a653e4"/><polyline points="123 122.999 51 164.561 123 206.141 123 123" fill="#5e11ce"/><polyline points="195 81.422 123 123.001 195 164.563 195 164.561 195 81.422" fill="#5e11ce"/><polyline points="123 39.859 123 123 195 81.422 123 39.86" fill="#8736db"/><polyline points="123 123.001 123 123.001 123 206.14 195 164.561 123 123" fill="#3d0bbd"/><polygon points="164.359 93.146 122.999 117.028 84.227 139.413 84.227 106.587 102.307 117.027 112.653 111.054 81.641 93.146 73.88 97.626 73.88 148.374 81.641 152.854 161.772 106.587 161.772 139.413 143.692 128.974 133.346 134.948 164.359 152.854 172.12 148.374 172.12 97.626 164.359 93.146" fill="#fff"/></svg>