<svg width="182" height="182" viewBox="0 0 182 182" fill="none" xmlns="http://www.w3.org/2000/svg">
<g clip-path="url(#clip0_4_694)">
<path d="M163 49.422V132.563L91 174.142L19 132.563V49.422L91 7.85999L163 49.422Z" fill="#0091FF"/>
<path d="M91 7.86001L19 49.422L91 91.001V91V7.85901V7.86001Z" fill="#26A1FF"/>
<path d="M91 90.999L19 132.561L91 174.141V91" fill="#0081FF"/>
<path d="M163 49.422L91 91.001L163 132.563V132.561V49.422Z" fill="#0075FF"/>
<path d="M91 7.85901V91L163 49.422L91 7.86001" fill="#1C89FF"/>
<path d="M91 91.001V174.14L163 132.561L91 91" fill="#0061FF"/>
<path d="M134.72 47.2793H85.8262V85.8267H47.2783V134.721H96.1738V96.1738H134.72V47.2793ZM124.373 57.6265V66.5527H96.1738V57.6265H124.373ZM57.626 124.374V115.447H85.826V124.374H57.626ZM85.826 105.1H57.626V96.1738H85.826V105.1ZM96.1736 85.8267V76.9H124.373V85.8268L96.1736 85.8267Z" fill="white"/>
</g>
<defs>
<clipPath id="clip0_4_694">
<rect width="182" height="182" fill="white"/>
</clipPath>
</defs>
</svg>
