<svg xmlns="http://www.w3.org/2000/svg" viewBox="0 0 246 246"><title>dbForge_EventProfiler_SQLS</title><rect width="246" height="246" fill="#fff" opacity="0"/><polyline points="195 81.422 195 164.563 123 206.142 51 164.563 51 81.422 123 39.86 195 81.422" fill="#881adb"/><polyline points="123 39.86 51 81.422 123 123.001 123 123 123 39.859 123 39.86" fill="#a653e4"/><polyline points="123 122.999 51 164.561 123 206.141 123 123" fill="#5e11ce"/><polyline points="195 81.422 123 123.001 195 164.563 195 164.561 195 81.422" fill="#5e11ce"/><polyline points="123 39.859 123 123 195 81.422 123 39.86" fill="#8736db"/><polyline points="123 123.001 123 123.001 123 206.14 195 164.561 123 123" fill="#3d0bbd"/><rect x="117.8262" y="94.9736" width="10.3476" height="49.416" fill="#fff"/><rect x="98.8809" y="101.3525" width="10.3466" height="43.0371" fill="#fff"/><rect x="79.9346" y="119.6592" width="10.3476" height="24.7304" fill="#fff"/><rect x="136.7715" y="101.3525" width="10.3476" height="43.0371" fill="#fff"/><rect x="155.7178" y="119.6592" width="10.3467" height="24.7304" fill="#fff"/><rect x="117.8262" y="79.479" width="10.3476" height="7.459" fill="#fff"/></svg>