<svg width="182" height="182" viewBox="0 0 182 182" fill="none" xmlns="http://www.w3.org/2000/svg">
<g clip-path="url(#clip0_4_618)">
<path d="M163 49.422V132.563L91 174.142L19 132.563V49.422L91 7.85999L163 49.422Z" fill="#0091FF"/>
<path d="M91 7.86001L19 49.422L91 91.001V91V7.85901V7.86001Z" fill="#26A1FF"/>
<path d="M91 90.999L19 132.561L91 174.141V91" fill="#0081FF"/>
<path d="M163 49.422L91 91.001L163 132.563V132.561V49.422Z" fill="#0075FF"/>
<path d="M91 7.85901V91L163 49.422L91 7.86001" fill="#1C89FF"/>
<path d="M91 91.001V174.14L163 132.561L91 91" fill="#0061FF"/>
<path d="M85.6133 83.8818H131.239V73.5342H66.5029C64.6194 73.5272 62.8155 72.774 61.4861 71.4397C60.1568 70.1053 59.4104 68.2986 59.4104 66.4151C59.4104 64.5316 60.1568 62.7248 61.4861 61.3905C62.8155 60.0561 64.6194 59.303 66.5029 59.2959H112.129V48.9487H66.5029C64.2056 48.9432 61.9299 49.3909 59.8059 50.2663C57.6819 51.1416 55.7515 52.4273 54.1251 54.0497C52.4988 55.6722 51.2085 57.5996 50.3281 59.7214C49.4477 61.8433 48.9945 64.118 48.9945 66.4153C48.9945 68.7125 49.4477 70.9872 50.3281 73.1091C51.2085 75.231 52.4988 77.1583 54.1251 78.7808C55.7515 80.4033 57.6819 81.689 59.8059 82.5643C61.9299 83.4396 64.2056 83.8873 66.5029 83.8818H69.6799C68.6699 86.1191 68.1476 88.5458 68.1476 91.0005C68.1476 93.4552 68.6699 95.8818 69.6799 98.1191H66.5029C61.8704 98.1191 57.4277 99.9594 54.152 103.235C50.8763 106.511 49.0361 110.953 49.0361 115.586C49.0361 120.218 50.8763 124.661 54.152 127.937C57.4277 131.212 61.8704 133.053 66.5029 133.053H112.129V122.705H66.5029C64.6194 122.698 62.8155 121.945 61.4861 120.611C60.1568 119.276 59.4104 117.469 59.4104 115.586C59.4104 113.702 60.1568 111.896 61.4861 110.561C62.8155 109.227 64.6194 108.474 66.5029 108.467H131.239V98.1191H85.6133C84.6762 98.1226 83.7477 97.9411 82.8809 97.5849C82.0141 97.2287 81.2262 96.7049 80.5624 96.0436C79.8985 95.3822 79.3718 94.5963 79.0124 93.7308C78.6529 92.8654 78.4679 91.9376 78.4679 91.0005C78.4679 90.0634 78.6529 89.1355 79.0124 88.2701C79.3718 87.4047 79.8985 86.6187 80.5624 85.9574C81.2262 85.296 82.0141 84.7722 82.8809 84.416C83.7477 84.0598 84.6762 83.8783 85.6133 83.8818Z" fill="white"/>
</g>
<defs>
<clipPath id="clip0_4_618">
<rect width="182" height="182" fill="white"/>
</clipPath>
</defs>
</svg>
