<svg xmlns="http://www.w3.org/2000/svg" viewBox="0 0 246 246"><title>dbForge_CompareBundle_Oracle</title><rect width="246" height="246" fill="#fff" opacity="0"/><polyline points="194.732 81.718 194.732 164.859 122.731 206.438 50.732 164.859 50.732 81.718 122.731 40.157 194.732 81.718" fill="#ed4842"/><polyline points="122.731 40.157 50.732 81.718 122.731 123.297 122.731 40.155 122.731 40.157" fill="#f0635e"/><polyline points="122.731 123.297 50.732 164.859 122.731 206.438 122.731 123.297" fill="#e11917"/><polyline points="194.732 81.718 122.731 123.297 194.732 164.859 194.732 81.718" fill="#e52824"/><polyline points="122.731 40.155 122.731 123.297 194.732 81.718 122.731 40.157" fill="#e93634"/><polyline points="122.731 123.297 122.731 123.297 122.731 206.438 194.732 164.859 122.731 123.297" fill="#d30e0d"/><polygon points="123.002 82.398 158.162 102.691 167.356 97.38 123.002 71.782 78.646 97.38 87.841 102.691 123.002 82.398" fill="#fff"/><polygon points="122.998 163.603 87.838 143.31 78.644 148.62 122.998 174.219 167.353 148.62 158.159 143.31 122.998 163.603" fill="#fff"/><rect x="108.4678" y="127.4639" width="29.0644" height="10.3471" fill="#fff"/><rect x="108.4678" y="108.1904" width="29.0644" height="10.3477" fill="#fff"/></svg>