<svg width="182" height="182" viewBox="0 0 182 182" fill="none" xmlns="http://www.w3.org/2000/svg">
<path d="M163 49.563V132.704L91 174.283L19 132.704V49.563L91 8.00101L163 49.563Z" fill="#881ADB"/>
<path d="M91 8.001L19 49.563L91 91.142V91.141V8V8.001Z" fill="#A653E4"/>
<path d="M91 91.14L19 132.702L91 174.282V91.141" fill="#5E11CE"/>
<path d="M163 49.563L91 91.142L163 132.704V132.702V49.563Z" fill="#5E11CE"/>
<path d="M91 8V91.141L163 49.563L91 8.001" fill="#8736DB"/>
<path d="M91 91.142V174.281L163 132.702L91 91.141" fill="#3D0BBD"/>
<path d="M98.3157 76.0446L115.704 58.6551L133.091 76.0451L125.775 83.3618L115.704 73.2902L105.632 83.361L98.3157 76.0446ZM76.3673 97.9931L66.2962 108.064L56.2251 97.9931L48.9092 105.309L66.2962 122.696L83.684 105.31L76.3673 97.9931ZM115.704 108.064L66.2953 58.656L34.2775 90.6772L41.5933 97.9931L66.2962 73.2902L91.0011 97.9931L115.704 122.696L147.722 90.6772L140.407 83.3613L115.704 108.064Z" fill="white"/>
</svg>
