<svg width="182" height="182" viewBox="0 0 182 182" fill="none" xmlns="http://www.w3.org/2000/svg">
<g clip-path="url(#clip0_4_666)">
<path d="M162.732 49.718V132.859L90.731 174.438L18.732 132.859V49.718L90.731 8.15698L162.732 49.718Z" fill="#ED4842"/>
<path d="M90.731 8.15703L18.732 49.718L90.731 91.297V8.15503V8.15703Z" fill="#F0635E"/>
<path d="M90.731 91.297L18.732 132.859L90.731 174.438V91.297Z" fill="#E11917"/>
<path d="M162.732 49.718L90.731 91.297L162.732 132.859V49.718Z" fill="#E52824"/>
<path d="M90.731 8.15503V91.297L162.732 49.718L90.731 8.15703" fill="#E93634"/>
<path d="M90.731 91.297V174.438L162.732 132.859L90.731 91.297Z" fill="#D30E0D"/>
<path d="M106.659 139.326H75.3408V124.467L69.8477 121.294L56.9785 128.724L41.3193 101.602L54.1875 94.1729V87.8281L41.3193 80.3994L56.9785 53.2764L69.8428 60.7046L75.3408 57.5312V42.6748H106.659V57.5312L112.157 60.7046L125.022 53.2764L140.68 80.3994L127.813 87.8281V94.1729L140.68 101.602L125.022 128.725L112.152 121.295L106.659 124.468V139.326ZM85.6885 128.979H96.3115V118.494L112.152 109.346L121.233 114.59L126.545 105.39L117.465 100.147V81.8545L126.545 76.6118L121.233 67.4118L112.157 72.6535L96.3115 63.5051V53.0225H85.6885V63.5049L69.8428 72.6533L60.7656 67.4116L55.4541 76.6116L64.5352 81.8543V100.147L55.4541 105.39L60.7666 114.59L69.8477 109.346L85.6885 118.493V128.979Z" fill="white"/>
<path d="M99.59 95.959L91 100.919L82.41 95.959V86.04L91 81.082L99.59 86.04V95.959Z" fill="white"/>
</g>
<defs>
<clipPath id="clip0_4_666">
<rect width="182" height="182" fill="white"/>
</clipPath>
</defs>
</svg>
