<svg width="182" height="182" viewBox="0 0 182 182" fill="none" xmlns="http://www.w3.org/2000/svg">
<g clip-path="url(#clip0_4_473)">
<path d="M163 49.422V132.563L91 174.142L19 132.563V49.422L91 7.85999L163 49.422Z" fill="#881ADB"/>
<path d="M91 7.86001L19 49.422L91 91.001V91V7.85901V7.86001Z" fill="#A653E4"/>
<path d="M91 90.999L19 132.561L91 174.141V91" fill="#5E11CE"/>
<path d="M163 49.422L91 91.001L163 132.563V132.561V49.422Z" fill="#5E11CE"/>
<path d="M91 7.85901V91L163 49.422L91 7.86001" fill="#8736DB"/>
<path d="M91 91.001V174.14L163 132.561L91 91" fill="#3D0BBD"/>
<path d="M85.6134 83.8818H131.239V73.5342H66.503C65.5681 73.5342 64.6424 73.35 63.7786 72.9923C62.9149 72.6345 62.1301 72.1101 61.469 71.449C60.808 70.788 60.2836 70.0032 59.9258 69.1394C59.568 68.2757 59.3839 67.3499 59.3839 66.415C59.3839 65.4801 59.568 64.5544 59.9258 63.6907C60.2836 62.8269 60.808 62.0421 61.469 61.381C62.1301 60.72 62.9149 60.1956 63.7786 59.8378C64.6424 59.48 65.5681 59.2959 66.503 59.2959H112.129V48.9487H66.503C64.2058 48.9432 61.93 49.3909 59.806 50.2662C57.6821 51.1415 55.7516 52.4273 54.1253 54.0497C52.4989 55.6722 51.2086 57.5995 50.3282 59.7214C49.4478 61.8433 48.9946 64.118 48.9946 66.4152C48.9946 68.7125 49.4478 70.9872 50.3282 73.1091C51.2086 75.2309 52.4989 77.1583 54.1253 78.7808C55.7516 80.4032 57.6821 81.6889 59.806 82.5642C61.93 83.4396 64.2058 83.8873 66.503 83.8818H69.6801C68.6702 86.1191 68.1479 88.5457 68.1479 91.0004C68.1479 93.4551 68.6702 95.8818 69.6801 98.1191H66.503C61.8705 98.1191 57.4278 99.9593 54.1521 103.235C50.8765 106.511 49.0362 110.953 49.0362 115.586C49.0362 120.218 50.8765 124.661 54.1521 127.937C57.4278 131.212 61.8705 133.053 66.503 133.053H112.129V122.705H66.503C65.5681 122.705 64.6424 122.521 63.7786 122.163C62.9149 121.805 62.1301 121.281 61.469 120.62C60.808 119.959 60.2836 119.174 59.9258 118.31C59.568 117.447 59.3839 116.521 59.3839 115.586C59.3839 114.651 59.568 113.725 59.9258 112.862C60.2836 111.998 60.808 111.213 61.469 110.552C62.1301 109.891 62.9149 109.366 63.7786 109.009C64.6424 108.651 65.5681 108.467 66.503 108.467H131.239V98.1191H85.6134C84.6763 98.1226 83.7478 97.9411 82.881 97.5849C82.0143 97.2287 81.2264 96.7049 80.5625 96.0435C79.8986 95.3822 79.3719 94.5962 79.0125 93.7308C78.6531 92.8654 78.468 91.9375 78.468 91.0004C78.468 90.0634 78.6531 89.1355 79.0125 88.2701C79.3719 87.4047 79.8986 86.6187 80.5625 85.9573C81.2264 85.296 82.0143 84.7722 82.881 84.416C83.7478 84.0598 84.6763 83.8783 85.6134 83.8818Z" fill="white"/>
</g>
<defs>
<clipPath id="clip0_4_473">
<rect width="182" height="182" fill="white"/>
</clipPath>
</defs>
</svg>
