<svg width="182" height="182" viewBox="0 0 182 182" fill="none" xmlns="http://www.w3.org/2000/svg">
<g clip-path="url(#clip0_4_566)">
<path d="M163 49.422V132.563L91 174.142L19 132.563V49.422L91 7.85999L163 49.422Z" fill="#881ADB"/>
<path d="M91 7.86001L19 49.422L91 91.001V91V7.85901V7.86001Z" fill="#A653E4"/>
<path d="M91 90.999L19 132.561L91 174.141V91" fill="#5E11CE"/>
<path d="M163 49.422L91 91.001L163 132.563V132.561V49.422Z" fill="#5E11CE"/>
<path d="M91 7.85901V91L163 49.422L91 7.86001" fill="#8736DB"/>
<path d="M91 91.001V174.14L163 132.561L91 91" fill="#3D0BBD"/>
<path d="M91 91.0005L46.6455 65.4014L91.002 39.7814L135.355 65.4014L91 91.0005ZM65.0361 65.3984L91 80.3838L116.964 65.3984L91.002 50.4019L65.0361 65.3984Z" fill="white"/>
<path d="M91 105.993L55.839 85.701L46.644 91.011L91 116.61L135.354 91.011L126.161 85.7L91 105.993Z" fill="white"/>
<path d="M90.998 131.603L55.838 111.31L46.644 116.62L90.998 142.219L135.353 116.62L126.159 111.31L90.998 131.603Z" fill="white"/>
</g>
<defs>
<clipPath id="clip0_4_566">
<rect width="182" height="182" fill="white"/>
</clipPath>
</defs>
</svg>
