<svg width="182" height="182" viewBox="0 0 182 182" fill="none" xmlns="http://www.w3.org/2000/svg">
<g clip-path="url(#clip0_4_657)">
<path d="M162.732 49.718V132.859L90.7309 174.438L18.7319 132.859V49.718L90.7309 8.15698L162.732 49.718Z" fill="#ED4842"/>
<path d="M90.7309 8.15703L18.7319 49.718L90.7309 91.297V8.15503V8.15703Z" fill="#F0635E"/>
<path d="M90.7309 91.297L18.7319 132.859L90.7309 174.438V91.297Z" fill="#E11917"/>
<path d="M162.732 49.718L90.731 91.297L162.732 132.859V49.718Z" fill="#E52824"/>
<path d="M90.731 8.15503V91.297L162.732 49.718L90.731 8.15703" fill="#E93634"/>
<path d="M90.731 91.297V174.438L162.732 132.859L90.731 91.297Z" fill="#D30E0D"/>
<path d="M112.207 72.7852L96.1729 82.04V50.0371L69.793 34.81L43.4121 50.0371V93.9878L69.793 109.222L85.8252 99.9634V131.963L112.207 147.198L138.588 131.963V88.0142L112.207 72.7852ZM128.24 93.9878V104.431L112.206 113.686L96.1727 104.432V93.9888L112.207 84.7324L128.24 93.9878ZM69.793 46.7568L85.8252 56.0122V66.4564L69.793 75.71L53.76 66.4573V56.0122L69.793 46.7568ZM69.793 97.2725L53.76 88.0142V78.4042L69.7932 87.6569L85.8254 78.4037V88.0137L69.793 97.2725ZM112.207 135.249L96.1729 125.99V116.38L112.206 125.634L128.24 116.379V125.99L112.207 135.249Z" fill="white"/>
</g>
<defs>
<clipPath id="clip0_4_657">
<rect width="182" height="182" fill="white"/>
</clipPath>
</defs>
</svg>
