<svg xmlns="http://www.w3.org/2000/svg" viewBox="0 0 246 246"><title>dbForge_Documenter_Oracle</title><rect width="246" height="246" fill="#fff" opacity="0"/><polyline points="194.732 81.718 194.732 164.859 122.731 206.438 50.732 164.859 50.732 81.718 122.731 40.157 194.732 81.718" fill="#ed4842"/><polyline points="122.731 40.157 50.732 81.718 122.731 123.297 122.731 40.155 122.731 40.157" fill="#f0635e"/><polyline points="122.731 123.297 50.732 164.859 122.731 206.438 122.731 123.297" fill="#e11917"/><polyline points="194.732 81.718 122.731 123.297 194.732 164.859 194.732 81.718" fill="#e52824"/><polyline points="122.731 40.155 122.731 123.297 194.732 81.718 122.731 40.157" fill="#e93634"/><polyline points="122.731 123.297 122.731 123.297 122.731 206.438 194.732 164.859 122.731 123.297" fill="#d30e0d"/><path d="M117.6133,115.8818h45.626V105.5342H98.5029a7.1192,7.1192,0,0,1,0-14.2383h45.626V80.9487H98.5029a17.4666,17.4666,0,1,0,0,34.9331h3.177a17.3018,17.3018,0,0,0,0,14.2373H98.5029a17.4668,17.4668,0,1,0,0,34.9336h45.626V154.7051H98.5029a7.1192,7.1192,0,0,1,0-14.2383h64.7364V130.1191h-45.626a7.1187,7.1187,0,1,1,0-14.2373Z" fill="#fff"/></svg>