<svg xmlns="http://www.w3.org/2000/svg" viewBox="0 0 246 246"><title>dbForge_Monitor_SQLS</title><rect width="246" height="246" fill="#fff" opacity="0"/><polyline points="195 81.422 195 164.563 123 206.142 51 164.563 51 81.422 123 39.86 195 81.422" fill="#881adb"/><polyline points="123 39.86 51 81.422 123 123.001 123 123 123 39.859 123 39.86" fill="#a653e4"/><polyline points="123 122.999 51 164.561 123 206.141 123 123" fill="#5e11ce"/><polyline points="195 81.422 123 123.001 195 164.563 195 164.561 195 81.422" fill="#5e11ce"/><polyline points="123 39.859 123 123 195 81.422 123 39.86" fill="#8736db"/><polyline points="123 123.001 123 123.001 123 206.14 195 164.561 123 123" fill="#3d0bbd"/><polygon points="132.953 158.255 121.397 158.255 100.159 115.76 90.409 135.257 68.251 135.257 68.251 124.904 84.013 124.904 100.159 92.638 132.953 158.255" fill="#fff"/><polygon points="178.625 125.757 178.625 136.122 152.995 136.122 142.821 115.76 133.06 135.316 127.265 123.743 142.821 92.638 159.392 125.757 178.625 125.757" fill="#fff"/></svg>