<svg xmlns="http://www.w3.org/2000/svg" viewBox="0 0 246 246"><title>dbForge_Studio_PostgreSQL</title><rect width="246" height="246" fill="#fff" opacity="0"/><polygon points="195.484 81.651 195.484 164.901 123.483 206.548 51.484 164.901 51.484 81.651 123.483 40.048 195.484 81.651" fill="#083db8"/><polygon points="123.482 40.048 51.484 81.661 123.482 123.296 123.482 40.048" fill="#007fe3"/><polygon points="123.482 206.544 123.482 123.296 51.484 164.913 123.482 206.548 123.488 206.544 123.482 206.544" fill="#080f6b"/><polygon points="195.484 81.659 195.484 164.908 123.483 123.293 195.484 81.659" fill="#0c1578"/><polygon points="123.482 123.296 195.479 81.661 123.482 40.048 123.482 123.296" fill="#0057d1"/><polygon points="123.482 206.544 195.479 164.913 123.482 123.296 123.482 206.544" fill="#070a4d"/><path d="M144.8447,153.83H88.3271V143.4824h56.5176a7.6538,7.6538,0,1,0,0-15.3076H101.1553a18.0017,18.0017,0,1,1,0-36.0034h56.5176v10.3472H101.1553a7.6543,7.6543,0,1,0,0,15.3085h43.6894a18.0013,18.0013,0,1,1,0,36.0025Z" fill="#fff"/></svg>