<svg xmlns="http://www.w3.org/2000/svg" viewBox="0 0 246 246"><title>dbForge_DataPump_SQLS</title><rect width="246" height="246" fill="#fff" opacity="0"/><polyline points="195 81.422 195 164.563 123 206.142 51 164.563 51 81.422 123 39.86 195 81.422" fill="#881adb"/><polyline points="123 39.86 51 81.422 123 123.001 123 123 123 39.859 123 39.86" fill="#a653e4"/><polyline points="123 122.999 51 164.561 123 206.141 123 123" fill="#5e11ce"/><polyline points="195 81.422 123 123.001 195 164.563 195 164.561 195 81.422" fill="#5e11ce"/><polyline points="123 39.859 123 123 195 81.422 123 39.86" fill="#8736db"/><polyline points="123 123.001 123 123.001 123 206.14 195 164.561 123 123" fill="#3d0bbd"/><polygon points="128.174 150.893 128.174 88.127 117.826 88.127 117.826 150.893 106.498 139.566 99.183 146.882 123 170.7 146.818 146.882 139.502 139.566 128.174 150.893" fill="#fff"/><polygon points="104.122 112.576 97.027 119.67 97.027 88.127 86.68 88.127 86.68 119.67 79.586 112.576 72.269 119.892 91.854 139.477 111.438 119.892 104.122 112.576" fill="#fff"/><polygon points="166.414 112.576 159.319 119.67 159.319 88.127 148.972 88.127 148.972 119.669 141.879 112.576 134.562 119.892 154.146 139.477 173.729 119.892 166.414 112.576" fill="#fff"/></svg>