<svg xmlns="http://www.w3.org/2000/svg" viewBox="0 0 246 246"><title>dbForge_DeveloperBundle_SQLS</title><rect width="246" height="246" fill="#fff" opacity="0"/><polyline points="195 81.422 195 164.563 123 206.142 51 164.563 51 81.422 123 39.86 195 81.422" fill="#881adb"/><polyline points="123 39.86 51 81.422 123 123.001 123 123 123 39.859 123 39.86" fill="#a653e4"/><polyline points="123 122.999 51 164.561 123 206.141 123 123" fill="#5e11ce"/><polyline points="195 81.422 123 123.001 195 164.563 195 164.561 195 81.422" fill="#5e11ce"/><polyline points="123 39.859 123 123 195 81.422 123 39.86" fill="#8736db"/><polyline points="123 123.001 123 123.001 123 206.14 195 164.561 123 123" fill="#3d0bbd"/><path d="M123,123.0005,78.6455,97.4014l44.3565-25.62,44.3525,25.62ZM97.0361,97.3984,123,112.3838l25.9639-14.9854L123.002,82.4019Z" fill="#fff"/><polygon points="123 137.993 87.839 117.701 78.644 123.011 123 148.61 167.354 123.011 158.161 117.7 123 137.993" fill="#fff"/><polygon points="122.998 163.603 87.838 143.31 78.644 148.62 122.998 174.219 167.353 148.62 158.159 143.31 122.998 163.603" fill="#fff"/></svg>