<svg width="182" height="182" viewBox="0 0 182 182" fill="none" xmlns="http://www.w3.org/2000/svg">
<g clip-path="url(#clip0_4_645)">
<path d="M162.732 49.718V132.859L90.7309 174.438L18.7319 132.859V49.718L90.7309 8.15698L162.732 49.718Z" fill="#ED4842"/>
<path d="M90.7309 8.15703L18.7319 49.718L90.7309 91.297V8.15503V8.15703Z" fill="#F0635E"/>
<path d="M90.7309 91.297L18.7319 132.859L90.7309 174.438V91.297Z" fill="#E11917"/>
<path d="M162.732 49.718L90.731 91.297L162.732 132.859V49.718Z" fill="#E52824"/>
<path d="M90.731 8.15503V91.297L162.732 49.718L90.731 8.15703" fill="#E93634"/>
<path d="M90.731 91.297V174.438L162.732 132.859L90.731 91.297Z" fill="#D30E0D"/>
<path d="M91.002 50.398L126.162 70.691L135.356 65.38L91.002 39.782L46.646 65.38L55.841 70.691L91.002 50.398Z" fill="white"/>
<path d="M90.998 131.603L55.838 111.31L46.644 116.62L90.998 142.219L135.353 116.62L126.159 111.31L90.998 131.603Z" fill="white"/>
<path d="M105.532 95.4639H76.4678V105.811H105.532V95.4639Z" fill="white"/>
<path d="M105.532 76.1904H76.4678V86.5381H105.532V76.1904Z" fill="white"/>
</g>
<defs>
<clipPath id="clip0_4_645">
<rect width="182" height="182" fill="white"/>
</clipPath>
</defs>
</svg>
