<svg width="182" height="182" viewBox="0 0 182 182" fill="none" xmlns="http://www.w3.org/2000/svg">
<g clip-path="url(#clip0_4_397)">
<path d="M163.484 49.651V132.901L91.483 174.548L19.484 132.901V49.651L91.483 8.048L163.484 49.651Z" fill="#083DB8"/>
<path d="M91.482 8.048L19.484 49.661L91.482 91.296V8.048Z" fill="#007FE3"/>
<path d="M91.482 174.544V91.296L19.484 132.913L91.482 174.548L91.488 174.544H91.482Z" fill="#080F6B"/>
<path d="M163.484 49.659V132.908L91.483 91.293L163.484 49.659Z" fill="#0C1578"/>
<path d="M91.482 91.296L163.479 49.661L91.482 8.048V91.296Z" fill="#0057D1"/>
<path d="M91.482 174.544L163.479 132.913L91.482 91.296V174.544Z" fill="#070A4D"/>
<path d="M112.845 121.83H56.3271V111.482H112.845C114.875 111.482 116.821 110.676 118.257 109.241C119.692 107.805 120.499 105.858 120.499 103.829C120.499 101.799 119.692 99.8519 118.257 98.4165C116.821 96.9812 114.875 96.1748 112.845 96.1748H69.1553C64.381 96.1748 59.8022 94.2782 56.4262 90.9022C53.0502 87.5262 51.1536 82.9474 51.1536 78.1731C51.1536 73.3987 53.0502 68.8199 56.4262 65.444C59.8022 62.068 64.381 60.1714 69.1553 60.1714H125.673V70.5186H69.1553C68.1478 70.5149 67.1495 70.7102 66.2177 71.0933C65.2858 71.4763 64.4387 72.0395 63.725 72.7507C63.0113 73.4618 62.4451 74.3068 62.0587 75.2373C61.6723 76.1677 61.4734 77.1653 61.4734 78.1728C61.4734 79.1803 61.6723 80.1779 62.0587 81.1084C62.4451 82.0389 63.0113 82.8839 63.725 83.595C64.4387 84.3061 65.2858 84.8694 66.2177 85.2524C67.1495 85.6354 68.1478 85.8307 69.1553 85.8271H112.845C115.212 85.8215 117.558 86.283 119.747 87.1852C121.935 88.0873 123.925 89.4124 125.601 91.0845C127.277 92.7566 128.607 94.743 129.514 96.9297C130.421 99.1165 130.888 101.461 130.888 103.828C130.888 106.196 130.421 108.54 129.514 110.727C128.607 112.914 127.277 114.9 125.601 116.572C123.925 118.244 121.935 119.569 119.747 120.472C117.558 121.374 115.212 121.836 112.845 121.83Z" fill="white"/>
</g>
<defs>
<clipPath id="clip0_4_397">
<rect width="182" height="182" fill="white"/>
</clipPath>
</defs>
</svg>
