<svg width="182" height="182" viewBox="0 0 182 182" fill="none" xmlns="http://www.w3.org/2000/svg">
<g clip-path="url(#clip0_4_703)">
<path d="M162.732 49.718V132.859L90.731 174.438L18.732 132.859V49.718L90.731 8.15698L162.732 49.718Z" fill="#ED4842"/>
<path d="M90.731 8.15703L18.732 49.718L90.731 91.297V8.15503V8.15703Z" fill="#F0635E"/>
<path d="M90.731 91.297L18.732 132.859L90.731 174.438V91.297Z" fill="#E11917"/>
<path d="M162.732 49.718L90.731 91.297L162.732 132.859V49.718Z" fill="#E52824"/>
<path d="M90.731 8.15503V91.297L162.732 49.718L90.731 8.15703" fill="#E93634"/>
<path d="M90.731 91.297V174.438L162.732 132.859L90.731 91.297Z" fill="#D30E0D"/>
<path d="M134.72 47.2793H85.8262V85.8267H47.2783V134.721H96.1738V96.1738H134.72V47.2793ZM124.373 57.6265V66.5527H96.1738V57.6265H124.373ZM57.626 124.374V115.447H85.826V124.374H57.626ZM85.826 105.1H57.626V96.1738H85.826V105.1ZM96.1736 85.8267V76.9H124.373V85.8268L96.1736 85.8267Z" fill="white"/>
</g>
<defs>
<clipPath id="clip0_4_703">
<rect width="182" height="182" fill="white"/>
</clipPath>
</defs>
</svg>
