<svg xmlns="http://www.w3.org/2000/svg" viewBox="0 0 246 246"><title>dbForge_Documenter_MySQL</title><rect width="246" height="246" fill="#fff" opacity="0"/><polyline points="195 81.422 195 164.563 123 206.142 51 164.563 51 81.422 123 39.86 195 81.422" fill="#0091ff"/><polyline points="123 39.86 51 81.422 123 123.001 123 123 123 39.859 123 39.86" fill="#26a1ff"/><polyline points="123 122.999 51 164.561 123 206.141 123 123" fill="#0081ff"/><polyline points="195 81.422 123 123.001 195 164.563 195 164.561 195 81.422" fill="#0075ff"/><polyline points="123 39.859 123 123 195 81.422 123 39.86" fill="#1c89ff"/><polyline points="123 123.001 123 123.001 123 206.14 195 164.561 123 123" fill="#0061ff"/><path d="M117.6133,115.8818h45.626V105.5342H98.5029a7.1192,7.1192,0,0,1,0-14.2383h45.626V80.9487H98.5029a17.4666,17.4666,0,1,0,0,34.9331h3.177a17.3018,17.3018,0,0,0,0,14.2373H98.5029a17.4668,17.4668,0,1,0,0,34.9336h45.626V154.7051H98.5029a7.1192,7.1192,0,0,1,0-14.2383h64.7364V130.1191h-45.626a7.1187,7.1187,0,1,1,0-14.2373Z" fill="#fff"/></svg>