<svg width="2396" height="920" viewBox="0 0 2396 920" fill="none" xmlns="http://www.w3.org/2000/svg">
<rect width="2396" height="920" fill="#1E1E1E"/>
<g clip-path="url(#clip0_0_1)">
<path d="M163.484 49.651V132.901L91.483 174.548L19.484 132.901V49.651L91.483 8.048L163.484 49.651Z" fill="#083DB8"/>
<path d="M91.482 8.048L19.484 49.661L91.482 91.296V8.048Z" fill="#007FE3"/>
<path d="M91.482 174.544V91.296L19.484 132.913L91.482 174.548L91.488 174.544H91.482Z" fill="#080F6B"/>
<path d="M163.484 49.659V132.908L91.483 91.293L163.484 49.659Z" fill="#0C1578"/>
<path d="M91.482 91.296L163.479 49.661L91.482 8.048V91.296Z" fill="#0057D1"/>
<path d="M91.482 174.544L163.479 132.913L91.482 91.296V174.544Z" fill="#070A4D"/>
<path d="M112.207 72.7852L96.1729 82.04V50.0371L69.793 34.81L43.4121 50.0371V93.9878L69.793 109.222L85.8252 99.9634V131.963L112.207 147.198L138.588 131.963V88.0142L112.207 72.7852ZM128.24 93.9878V104.431L112.206 113.686L96.1727 104.432V93.9888L112.207 84.7324L128.24 93.9878ZM69.793 46.7568L85.8252 56.0122V66.4564L69.793 75.71L53.76 66.4573V56.0122L69.793 46.7568ZM69.793 97.2725L53.76 88.0142V78.4042L69.7932 87.6569L85.8254 78.4037V88.0137L69.793 97.2725ZM112.207 135.249L96.1729 125.99V116.38L112.206 125.634L128.24 116.379V125.99L112.207 135.249Z" fill="white"/>
</g>
<g clip-path="url(#clip1_0_1)">
<path d="M409.484 49.651V132.901L337.483 174.548L265.484 132.901V49.651L337.483 8.048L409.484 49.651Z" fill="#083DB8"/>
<path d="M337.482 8.048L265.484 49.661L337.482 91.296V8.048Z" fill="#007FE3"/>
<path d="M337.482 174.544V91.296L265.484 132.913L337.482 174.548L337.488 174.544H337.482Z" fill="#080F6B"/>
<path d="M409.484 49.659V132.908L337.483 91.293L409.484 49.659Z" fill="#0C1578"/>
<path d="M337.482 91.296L409.479 49.661L337.482 8.048V91.296Z" fill="#0057D1"/>
<path d="M337.482 174.544L409.479 132.913L337.482 91.296V174.544Z" fill="#070A4D"/>
<path d="M358.845 121.83H302.327V111.482H358.845C360.875 111.482 362.821 110.676 364.257 109.241C365.692 107.805 366.499 105.858 366.499 103.829C366.499 101.799 365.692 99.8519 364.257 98.4165C362.821 96.9812 360.875 96.1748 358.845 96.1748H315.155C310.381 96.1748 305.802 94.2782 302.426 90.9022C299.05 87.5262 297.154 82.9474 297.154 78.1731C297.154 73.3987 299.05 68.8199 302.426 65.444C305.802 62.068 310.381 60.1714 315.155 60.1714H371.673V70.5186H315.155C314.148 70.5149 313.15 70.7102 312.218 71.0933C311.286 71.4763 310.439 72.0395 309.725 72.7507C309.011 73.4618 308.445 74.3068 308.059 75.2373C307.672 76.1677 307.473 77.1653 307.473 78.1728C307.473 79.1803 307.672 80.1779 308.059 81.1084C308.445 82.0389 309.011 82.8839 309.725 83.595C310.439 84.3061 311.286 84.8694 312.218 85.2524C313.15 85.6354 314.148 85.8307 315.155 85.8271H358.845C361.212 85.8215 363.558 86.283 365.747 87.1852C367.935 88.0873 369.925 89.4124 371.601 91.0845C373.277 92.7566 374.607 94.743 375.514 96.9297C376.421 99.1165 376.888 101.461 376.888 103.828C376.888 106.196 376.421 108.54 375.514 110.727C374.607 112.914 373.277 114.9 371.601 116.572C369.925 118.244 367.935 119.569 365.747 120.472C363.558 121.374 361.212 121.836 358.845 121.83Z" fill="white"/>
</g>
<g clip-path="url(#clip2_0_1)">
<path d="M655 49.422V132.563L583 174.142L511 132.563V49.422L583 7.85999L655 49.422Z" fill="#881ADB"/>
<path d="M583 7.86001L511 49.422L583 91.001V91V7.85901V7.86001Z" fill="#A653E4"/>
<path d="M583 90.999L511 132.561L583 174.141V91" fill="#5E11CE"/>
<path d="M655 49.422L583 91.001L655 132.563V132.561V49.422Z" fill="#5E11CE"/>
<path d="M583 7.85901V91L655 49.422L583 7.86001" fill="#8736DB"/>
<path d="M583 91.001V174.14L655 132.561L583 91" fill="#3D0BBD"/>
<path d="M583.002 50.398L618.162 70.691L627.356 65.38L583.002 39.782L538.646 65.38L547.841 70.691L583.002 50.398Z" fill="white"/>
<path d="M582.998 131.603L547.838 111.31L538.644 116.62L582.998 142.219L627.353 116.62L618.159 111.31L582.998 131.603Z" fill="white"/>
<path d="M597.532 95.4639H568.468V105.811H597.532V95.4639Z" fill="white"/>
<path d="M597.532 76.1904H568.468V86.5381H597.532V76.1904Z" fill="white"/>
</g>
<path d="M901 49.563V132.704L829 174.283L757 132.704V49.563L829 8.00101L901 49.563Z" fill="#881ADB"/>
<path d="M829 8.001L757 49.563L829 91.142V91.141V8V8.001Z" fill="#A653E4"/>
<path d="M829 91.14L757 132.702L829 174.282V91.141" fill="#5E11CE"/>
<path d="M901 49.563L829 91.142L901 132.704V132.702V49.563Z" fill="#5E11CE"/>
<path d="M829 8V91.141L901 49.563L829 8.001" fill="#8736DB"/>
<path d="M829 91.142V174.281L901 132.702L829 91.141" fill="#3D0BBD"/>
<path d="M836.316 76.0446L853.704 58.6551L871.091 76.0451L863.775 83.3618L853.704 73.2902L843.632 83.361L836.316 76.0446ZM814.367 97.9931L804.296 108.064L794.225 97.9931L786.909 105.309L804.296 122.696L821.684 105.31L814.367 97.9931ZM853.704 108.064L804.295 58.656L772.277 90.6772L779.593 97.9931L804.296 73.2902L829.001 97.9931L853.704 122.696L885.722 90.6772L878.407 83.3613L853.704 108.064Z" fill="white"/>
<g clip-path="url(#clip3_0_1)">
<path d="M1147 49.422V132.563L1075 174.142L1003 132.563V49.422L1075 7.85999L1147 49.422Z" fill="#881ADB"/>
<path d="M1075 7.86001L1003 49.422L1075 91.001V91V7.85901V7.86001Z" fill="#A653E4"/>
<path d="M1075 90.999L1003 132.561L1075 174.141V91" fill="#5E11CE"/>
<path d="M1147 49.422L1075 91.001L1147 132.563V132.561V49.422Z" fill="#5E11CE"/>
<path d="M1075 7.85901V91L1147 49.422L1075 7.86001" fill="#8736DB"/>
<path d="M1075 91.001V174.14L1147 132.561L1075 91" fill="#3D0BBD"/>
<path d="M1096.21 72.7852L1080.17 82.04V50.0371L1053.79 34.81L1027.41 50.0371V93.9878L1053.79 109.222L1069.83 99.9634V131.963L1096.21 147.198L1122.59 131.963V88.0142L1096.21 72.7852ZM1112.24 93.9878V104.431L1096.21 113.686L1080.17 104.432V93.9888L1096.21 84.7324L1112.24 93.9878ZM1053.79 46.7568L1069.83 56.0122V66.4564L1053.79 75.71L1037.76 66.4573V56.0122L1053.79 46.7568ZM1053.79 97.2725L1037.76 88.0142V78.4042L1053.79 87.6569L1069.83 78.4037V88.0137L1053.79 97.2725ZM1096.21 135.249L1080.17 125.99V116.38L1096.21 125.634L1112.24 116.379V125.99L1096.21 135.249Z" fill="white"/>
</g>
<g clip-path="url(#clip4_0_1)">
<path d="M1393 49.422V132.563L1321 174.142L1249 132.563V49.422L1321 7.85999L1393 49.422Z" fill="#881ADB"/>
<path d="M1321 7.86001L1249 49.422L1321 91.001V91V7.85901V7.86001Z" fill="#A653E4"/>
<path d="M1321 90.999L1249 132.561L1321 174.141V91" fill="#5E11CE"/>
<path d="M1393 49.422L1321 91.001L1393 132.563V132.561V49.422Z" fill="#5E11CE"/>
<path d="M1321 7.85901V91L1393 49.422L1321 7.86001" fill="#8736DB"/>
<path d="M1321 91.001V174.14L1393 132.561L1321 91" fill="#3D0BBD"/>
<path d="M1336.66 139.326H1305.34V124.467L1299.85 121.294L1286.98 128.724L1271.32 101.602L1284.19 94.1729V87.8281L1271.32 80.3994L1286.98 53.2764L1299.84 60.7046L1305.34 57.5312V42.6748H1336.66V57.5312L1342.16 60.7046L1355.02 53.2764L1370.68 80.3994L1357.81 87.8281V94.1729L1370.68 101.602L1355.02 128.725L1342.15 121.295L1336.66 124.468V139.326ZM1315.69 128.979H1326.31V118.494L1342.15 109.346L1351.23 114.59L1356.54 105.39L1347.46 100.147V81.8545L1356.54 76.6118L1351.23 67.4118L1342.16 72.6535L1326.31 63.5051V53.0225H1315.69V63.5049L1299.84 72.6533L1290.77 67.4116L1285.45 76.6116L1294.54 81.8543V100.147L1285.45 105.39L1290.77 114.59L1299.85 109.346L1315.69 118.493V128.979Z" fill="white"/>
<path d="M1329.59 95.959L1321 100.919L1312.41 95.959V86.04L1321 81.082L1329.59 86.04V95.959Z" fill="white"/>
</g>
<g clip-path="url(#clip5_0_1)">
<path d="M1639 49.422V132.563L1567 174.142L1495 132.563V49.422L1567 7.85999L1639 49.422Z" fill="#881ADB"/>
<path d="M1567 7.86001L1495 49.422L1567 91.001V91V7.85901V7.86001Z" fill="#A653E4"/>
<path d="M1567 90.999L1495 132.561L1567 174.141V91" fill="#5E11CE"/>
<path d="M1639 49.422L1567 91.001L1639 132.563V132.561V49.422Z" fill="#5E11CE"/>
<path d="M1567 7.85901V91L1639 49.422L1567 7.86001" fill="#8736DB"/>
<path d="M1567 91.001V174.14L1639 132.561L1567 91" fill="#3D0BBD"/>
<path d="M1572.17 118.893V56.127H1561.83V118.893L1550.5 107.566L1543.18 114.882L1567 138.7L1590.82 114.882L1583.5 107.566L1572.17 118.893Z" fill="white"/>
<path d="M1548.12 80.576L1541.03 87.67V56.127H1530.68V87.67L1523.59 80.576L1516.27 87.892L1535.85 107.477L1555.44 87.892L1548.12 80.576Z" fill="white"/>
<path d="M1610.41 80.576L1603.32 87.67V56.127H1592.97V87.669L1585.88 80.576L1578.56 87.892L1598.15 107.477L1617.73 87.892L1610.41 80.576Z" fill="white"/>
</g>
<g clip-path="url(#clip6_0_1)">
<path d="M1885 49.422V132.563L1813 174.142L1741 132.563V49.422L1813 7.85999L1885 49.422Z" fill="#881ADB"/>
<path d="M1813 7.86001L1741 49.422L1813 91.001V91V7.85901V7.86001Z" fill="#A653E4"/>
<path d="M1813 90.999L1741 132.561L1813 174.141V91" fill="#5E11CE"/>
<path d="M1885 49.422L1813 91.001L1885 132.563V132.561V49.422Z" fill="#5E11CE"/>
<path d="M1813 7.85901V91L1885 49.422L1813 7.86001" fill="#8736DB"/>
<path d="M1813 91.001V174.14L1885 132.561L1813 91" fill="#3D0BBD"/>
<path d="M1807.61 83.8818H1853.24V73.5342H1788.5C1787.57 73.5342 1786.64 73.35 1785.78 72.9923C1784.91 72.6345 1784.13 72.1101 1783.47 71.449C1782.81 70.788 1782.28 70.0032 1781.93 69.1394C1781.57 68.2757 1781.38 67.3499 1781.38 66.415C1781.38 65.4801 1781.57 64.5544 1781.93 63.6907C1782.28 62.8269 1782.81 62.0421 1783.47 61.381C1784.13 60.72 1784.91 60.1956 1785.78 59.8378C1786.64 59.48 1787.57 59.2959 1788.5 59.2959H1834.13V48.9487H1788.5C1786.21 48.9432 1783.93 49.3909 1781.81 50.2662C1779.68 51.1415 1777.75 52.4273 1776.13 54.0497C1774.5 55.6722 1773.21 57.5995 1772.33 59.7214C1771.45 61.8433 1770.99 64.118 1770.99 66.4152C1770.99 68.7125 1771.45 70.9872 1772.33 73.1091C1773.21 75.2309 1774.5 77.1583 1776.13 78.7808C1777.75 80.4032 1779.68 81.6889 1781.81 82.5642C1783.93 83.4396 1786.21 83.8873 1788.5 83.8818H1791.68C1790.67 86.1191 1790.15 88.5457 1790.15 91.0004C1790.15 93.4551 1790.67 95.8818 1791.68 98.1191H1788.5C1783.87 98.1191 1779.43 99.9593 1776.15 103.235C1772.88 106.511 1771.04 110.953 1771.04 115.586C1771.04 120.218 1772.88 124.661 1776.15 127.937C1779.43 131.212 1783.87 133.053 1788.5 133.053H1834.13V122.705H1788.5C1787.57 122.705 1786.64 122.521 1785.78 122.163C1784.91 121.805 1784.13 121.281 1783.47 120.62C1782.81 119.959 1782.28 119.174 1781.93 118.31C1781.57 117.447 1781.38 116.521 1781.38 115.586C1781.38 114.651 1781.57 113.725 1781.93 112.862C1782.28 111.998 1782.81 111.213 1783.47 110.552C1784.13 109.891 1784.91 109.366 1785.78 109.009C1786.64 108.651 1787.57 108.467 1788.5 108.467H1853.24V98.1191H1807.61C1806.68 98.1226 1805.75 97.9411 1804.88 97.5849C1804.01 97.2287 1803.23 96.7049 1802.56 96.0435C1801.9 95.3822 1801.37 94.5962 1801.01 93.7308C1800.65 92.8654 1800.47 91.9375 1800.47 91.0004C1800.47 90.0634 1800.65 89.1355 1801.01 88.2701C1801.37 87.4047 1801.9 86.6187 1802.56 85.9573C1803.23 85.296 1804.01 84.7722 1804.88 84.416C1805.75 84.0598 1806.68 83.8783 1807.61 83.8818Z" fill="white"/>
</g>
<g clip-path="url(#clip7_0_1)">
<path d="M2131 49.422V132.563L2059 174.142L1987 132.563V49.422L2059 7.85999L2131 49.422Z" fill="#881ADB"/>
<path d="M2059 7.86001L1987 49.422L2059 91.001V91V7.85901V7.86001Z" fill="#A653E4"/>
<path d="M2059 90.999L1987 132.561L2059 174.141V91" fill="#5E11CE"/>
<path d="M2131 49.422L2059 91.001L2131 132.563V132.561V49.422Z" fill="#5E11CE"/>
<path d="M2059 7.85901V91L2131 49.422L2059 7.86001" fill="#8736DB"/>
<path d="M2059 91.001V174.14L2131 132.561L2059 91" fill="#3D0BBD"/>
<path d="M2064.17 62.9736H2053.83V112.39H2064.17V62.9736Z" fill="white"/>
<path d="M2045.23 69.3525H2034.88V112.39H2045.23V69.3525Z" fill="white"/>
<path d="M2026.28 87.6592H2015.93V112.39H2026.28V87.6592Z" fill="white"/>
<path d="M2083.12 69.3525H2072.77V112.39H2083.12V69.3525Z" fill="white"/>
<path d="M2102.06 87.6592H2091.72V112.39H2102.06V87.6592Z" fill="white"/>
<path d="M2064.17 47.479H2053.83V54.938H2064.17V47.479Z" fill="white"/>
</g>
<g clip-path="url(#clip8_0_1)">
<path d="M2377 49.422V132.563L2305 174.142L2233 132.563V49.422L2305 7.85999L2377 49.422Z" fill="#881ADB"/>
<path d="M2305 7.86001L2233 49.422L2305 91.001V91V7.85901V7.86001Z" fill="#A653E4"/>
<path d="M2305 90.999L2233 132.561L2305 174.141V91" fill="#5E11CE"/>
<path d="M2377 49.422L2305 91.001L2377 132.563V132.561V49.422Z" fill="#5E11CE"/>
<path d="M2305 7.85901V91L2377 49.422L2305 7.86001" fill="#8736DB"/>
<path d="M2305 91.001V174.14L2377 132.561L2305 91" fill="#3D0BBD"/>
<path d="M2346.36 61.146L2305 85.028L2266.23 107.413V74.587L2284.31 85.027L2294.65 79.054L2263.64 61.146L2255.88 65.626V116.374L2263.64 120.854L2343.77 74.587V107.413L2325.69 96.974L2315.35 102.948L2346.36 120.854L2354.12 116.374V65.626L2346.36 61.146Z" fill="white"/>
</g>
<g clip-path="url(#clip9_0_1)">
<path d="M163 295.422V378.563L91 420.142L19 378.563V295.422L91 253.86L163 295.422Z" fill="#881ADB"/>
<path d="M91 253.86L19 295.422L91 337.001V337V253.859V253.86Z" fill="#A653E4"/>
<path d="M91 336.999L19 378.561L91 420.141V337" fill="#5E11CE"/>
<path d="M163 295.422L91 337.001L163 378.563V378.561V295.422Z" fill="#5E11CE"/>
<path d="M91 253.859V337L163 295.422L91 253.86" fill="#8736DB"/>
<path d="M91 337.001V420.14L163 378.561L91 337" fill="#3D0BBD"/>
<path d="M85.8867 282.326V305.912L96.2344 311.884V300.245L125.449 317.106V356.886L115.955 362.368V332.326L66.0459 303.52V327.095L76.3926 333.066V321.44L105.607 338.301L105.608 368.343L96.1123 373.828V353.52L46.2031 324.715V362.859L90.999 388.729L135.797 362.859V311.131L85.8867 282.326ZM56.9727 357.13L56.5508 356.886V342.634L85.7646 359.496L85.7656 373.758L56.9727 357.13Z" fill="white"/>
</g>
<g clip-path="url(#clip10_0_1)">
<path d="M409 295.422V378.563L337 420.142L265 378.563V295.422L337 253.86L409 295.422Z" fill="#881ADB"/>
<path d="M337 253.86L265 295.422L337 337.001V337V253.859V253.86Z" fill="#A653E4"/>
<path d="M337 336.999L265 378.561L337 420.141V337" fill="#5E11CE"/>
<path d="M409 295.422L337 337.001L409 378.563V378.561V295.422Z" fill="#5E11CE"/>
<path d="M337 253.859V337L409 295.422L337 253.86" fill="#8736DB"/>
<path d="M337 337.001V420.14L409 378.561L337 337" fill="#3D0BBD"/>
<path d="M346.953 372.255H335.397L314.159 329.76L304.409 349.257H282.251V338.904H298.013L314.159 306.638L346.953 372.255Z" fill="white"/>
<path d="M392.625 339.757V350.122H366.995L356.821 329.76L347.06 349.316L341.265 337.743L356.821 306.638L373.392 339.757H392.625Z" fill="white"/>
</g>
<g clip-path="url(#clip11_0_1)">
<path d="M655 295.422V378.563L583 420.142L511 378.563V295.422L583 253.86L655 295.422Z" fill="#881ADB"/>
<path d="M583 253.86L511 295.422L583 337.001V337V253.859V253.86Z" fill="#A653E4"/>
<path d="M583 336.999L511 378.561L583 420.141V337" fill="#5E11CE"/>
<path d="M655 295.422L583 337.001L655 378.563V378.561V295.422Z" fill="#5E11CE"/>
<path d="M583 253.859V337L655 295.422L583 253.86" fill="#8736DB"/>
<path d="M583 337.001V420.14L655 378.561L583 337" fill="#3D0BBD"/>
<path d="M622.253 297.748H566.466V320.467H543.747V376.252H599.532V353.533H622.253L622.253 297.748ZM589.185 365.905H554.095V330.815H566.466V353.533H589.186L589.185 365.905ZM589.185 343.185H576.813V330.814H589.186L589.185 343.185ZM611.905 343.185H599.532V320.467H576.813V308.095H611.905L611.905 343.185Z" fill="white"/>
</g>
<g clip-path="url(#clip12_0_1)">
<path d="M901 295.422V378.563L829 420.142L757 378.563V295.422L829 253.86L901 295.422Z" fill="#881ADB"/>
<path d="M829 253.86L757 295.422L829 337.001V337V253.859V253.86Z" fill="#A653E4"/>
<path d="M829 336.999L757 378.561L829 420.141V337" fill="#5E11CE"/>
<path d="M901 295.422L829 337.001L901 378.563V378.561V295.422Z" fill="#5E11CE"/>
<path d="M829 253.859V337L901 295.422L829 253.86" fill="#8736DB"/>
<path d="M829 337.001V420.14L901 378.561L829 337" fill="#3D0BBD"/>
<path d="M872.72 293.279H823.826V331.827H785.278V380.721H834.174V342.174H872.72V293.279ZM862.373 303.627V312.553H834.174V303.627H862.373ZM795.626 370.374V361.447H823.826V370.374H795.626ZM823.826 351.1H795.626V342.174H823.826V351.1ZM834.174 331.827V322.9H862.373V331.827L834.174 331.827Z" fill="white"/>
</g>
<g clip-path="url(#clip13_0_1)">
<path d="M1147 295.422V378.563L1075 420.142L1003 378.563V295.422L1075 253.86L1147 295.422Z" fill="#881ADB"/>
<path d="M1075 253.86L1003 295.422L1075 337.001V337V253.859V253.86Z" fill="#A653E4"/>
<path d="M1075 336.999L1003 378.561L1075 420.141V337" fill="#5E11CE"/>
<path d="M1147 295.422L1075 337.001L1147 378.563V378.561V295.422Z" fill="#5E11CE"/>
<path d="M1075 253.859V337L1147 295.422L1075 253.86" fill="#8736DB"/>
<path d="M1075 337.001V420.14L1147 378.561L1075 337" fill="#3D0BBD"/>
<path d="M1051.91 350.328L1062.26 344.354V329.644L1075 322.287V310.34L1051.91 323.668V350.328Z" fill="white"/>
<path d="M1117.51 355.568V312.45L1075 287.908L1032.49 312.45V361.542L1075 386.094L1112.34 364.529L1141.83 381.549L1147 378.562V372.589L1117.51 355.568ZM1107.17 355.568L1075 374.145L1042.83 355.568V318.424L1075 299.855L1107.17 318.425V355.568Z" fill="white"/>
</g>
<g clip-path="url(#clip14_0_1)">
<path d="M1393 295.422V378.563L1321 420.142L1249 378.563V295.422L1321 253.86L1393 295.422Z" fill="#881ADB"/>
<path d="M1321 253.86L1249 295.422L1321 337.001V337V253.859V253.86Z" fill="#A653E4"/>
<path d="M1321 336.999L1249 378.561L1321 420.141V337" fill="#5E11CE"/>
<path d="M1393 295.422L1321 337.001L1393 378.563V378.561V295.422Z" fill="#5E11CE"/>
<path d="M1321 253.859V337L1393 295.422L1321 253.86" fill="#8736DB"/>
<path d="M1321 337.001V420.14L1393 378.561L1321 337" fill="#3D0BBD"/>
<path d="M1372.96 326.129L1354.54 315.495L1336.13 326.129V341.419L1311.05 355.894L1302.98 351.234L1302.98 322.287L1316.22 314.643L1316.22 293.378L1297.8 282.745L1279.39 293.378L1279.39 314.642L1292.63 322.287L1292.63 351.236L1279.39 358.882L1279.39 380.145L1297.81 390.777L1316.22 380.146L1316.22 364.854L1341.3 350.38L1349.37 355.038L1349.37 403.756L1359.72 397.78L1359.72 355.038L1372.96 347.394L1372.96 326.129ZM1289.74 299.352L1297.8 294.693L1305.87 299.352L1305.87 308.669L1297.8 313.327L1289.73 308.669L1289.74 299.352ZM1297.8 378.83L1289.74 374.171L1289.74 364.855L1297.8 360.197L1305.87 364.855L1305.88 374.172L1297.8 378.83ZM1362.61 341.419L1354.54 346.077L1346.48 341.42V332.103L1354.54 327.444L1362.61 332.103V341.419Z" fill="white"/>
</g>
<g clip-path="url(#clip15_0_1)">
<path d="M1639 295.422V378.563L1567 420.142L1495 378.563V295.422L1567 253.86L1639 295.422Z" fill="#881ADB"/>
<path d="M1567 253.86L1495 295.422L1567 337.001V337V253.859V253.86Z" fill="#A653E4"/>
<path d="M1567 336.999L1495 378.561L1567 420.141V337" fill="#5E11CE"/>
<path d="M1639 295.422L1567 337.001L1639 378.563V378.561V295.422Z" fill="#5E11CE"/>
<path d="M1567 253.859V337L1639 295.422L1567 253.86" fill="#8736DB"/>
<path d="M1567 337.001V420.14L1639 378.561L1567 337" fill="#3D0BBD"/>
<path d="M1611.1 310.341H1600.76V331.827H1545.73L1561.08 316.482L1553.76 309.166L1525.93 337L1553.76 364.835L1561.08 357.519L1545.73 342.174H1611.1V310.341Z" fill="white"/>
</g>
<g clip-path="url(#clip16_0_1)">
<path d="M1885 295.422V378.563L1813 420.142L1741 378.563V295.422L1813 253.86L1885 295.422Z" fill="#881ADB"/>
<path d="M1813 253.86L1741 295.422L1813 337.001V337V253.859V253.86Z" fill="#A653E4"/>
<path d="M1813 336.999L1741 378.561L1813 420.141V337" fill="#5E11CE"/>
<path d="M1885 295.422L1813 337.001L1885 378.563V378.561V295.422Z" fill="#5E11CE"/>
<path d="M1813 253.859V337L1885 295.422L1813 253.86" fill="#8736DB"/>
<path d="M1813 337.001V420.14L1885 378.561L1813 337" fill="#3D0BBD"/>
<path d="M1836.01 298.173L1813.89 310.942V330.512L1770.48 355.577L1782.98 377.236L1791.94 372.063L1784.61 359.365L1791.44 355.425L1798.77 368.122L1807.73 362.948L1800.4 350.252L1819.06 339.473L1836.01 349.26L1858.13 336.485V310.942L1836.01 298.173ZM1847.78 330.511L1836.01 337.31L1824.24 330.511V316.916L1836.01 310.12L1847.78 316.916V330.511Z" fill="white"/>
</g>
<g clip-path="url(#clip17_0_1)">
<path d="M2131 295.422V378.563L2059 420.142L1987 378.563V295.422L2059 253.86L2131 295.422Z" fill="#881ADB"/>
<path d="M2059 253.86L1987 295.422L2059 337.001V337V253.859V253.86Z" fill="#A653E4"/>
<path d="M2059 336.999L1987 378.561L2059 420.141V337" fill="#5E11CE"/>
<path d="M2131 295.422L2059 337.001L2131 378.563V378.561V295.422Z" fill="#5E11CE"/>
<path d="M2059 253.859V337L2131 295.422L2059 253.86" fill="#8736DB"/>
<path d="M2059 337.001V420.14L2131 378.561L2059 337" fill="#3D0BBD"/>
<path d="M2059 337L2014.65 311.401L2059 285.781L2103.35 311.401L2059 337ZM2033.04 311.398L2059 326.384L2084.96 311.398L2059 296.402L2033.04 311.398Z" fill="white"/>
<path d="M2059 351.993L2023.84 331.701L2014.64 337.011L2059 362.61L2103.35 337.011L2094.16 331.7L2059 351.993Z" fill="white"/>
<path d="M2059 377.603L2023.84 357.31L2014.64 362.62L2059 388.219L2103.35 362.62L2094.16 357.31L2059 377.603Z" fill="white"/>
</g>
<g clip-path="url(#clip18_0_1)">
<path d="M2377 295.422V378.563L2305 420.142L2233 378.563V295.422L2305 253.86L2377 295.422Z" fill="#881ADB"/>
<path d="M2305 253.86L2233 295.422L2305 337.001V337V253.859V253.86Z" fill="#A653E4"/>
<path d="M2305 336.999L2233 378.561L2305 420.141V337" fill="#5E11CE"/>
<path d="M2377 295.422L2305 337.001L2377 378.563V378.561V295.422Z" fill="#5E11CE"/>
<path d="M2305 253.859V337L2377 295.422L2305 253.86" fill="#8736DB"/>
<path d="M2305 337.001V420.14L2377 378.561L2305 337" fill="#3D0BBD"/>
<path d="M2326.84 367.83H2270.33V357.482H2326.84C2328.87 357.482 2330.82 356.676 2332.26 355.241C2333.69 353.805 2334.5 351.858 2334.5 349.829C2334.5 347.799 2333.69 345.852 2332.26 344.417C2330.82 342.981 2328.87 342.175 2326.84 342.175H2283.16C2278.38 342.175 2273.8 340.278 2270.43 336.902C2267.05 333.526 2265.15 328.947 2265.15 324.173C2265.15 319.399 2267.05 314.82 2270.43 311.444C2273.8 308.068 2278.38 306.171 2283.16 306.171H2339.67V316.519H2283.16C2282.15 316.515 2281.15 316.71 2280.22 317.093C2279.29 317.476 2278.44 318.04 2277.72 318.751C2277.01 319.462 2276.44 320.307 2276.06 321.237C2275.67 322.168 2275.47 323.165 2275.47 324.173C2275.47 325.18 2275.67 326.178 2276.06 327.108C2276.44 328.039 2277.01 328.884 2277.72 329.595C2278.44 330.306 2279.29 330.869 2280.22 331.252C2281.15 331.635 2282.15 331.831 2283.16 331.827H2326.84C2329.21 331.822 2331.56 332.283 2333.75 333.185C2335.94 334.087 2337.92 335.412 2339.6 337.085C2341.28 338.757 2342.61 340.743 2343.51 342.93C2344.42 345.117 2344.89 347.461 2344.89 349.828C2344.89 352.196 2344.42 354.54 2343.51 356.727C2342.61 358.914 2341.28 360.9 2339.6 362.572C2337.92 364.244 2335.94 365.569 2333.75 366.472C2331.56 367.374 2329.21 367.836 2326.84 367.83Z" fill="white"/>
</g>
<g clip-path="url(#clip19_0_1)">
<path d="M163 541.422V624.563L91 666.142L19 624.563V541.422L91 499.86L163 541.422Z" fill="#881ADB"/>
<path d="M91 499.86L19 541.422L91 583.001V583V499.859V499.86Z" fill="#A653E4"/>
<path d="M91 582.999L19 624.561L91 666.141V583" fill="#5E11CE"/>
<path d="M163 541.422L91 583.001L163 624.563V624.561V541.422Z" fill="#5E11CE"/>
<path d="M91 499.859V583L163 541.422L91 499.86" fill="#8736DB"/>
<path d="M91 583.001V666.14L163 624.561L91 583" fill="#3D0BBD"/>
<path d="M127.448 619.562H54.552L50.137 611.692L74.893 571.159V555.227H85.239V572.614L84.48 575.31L63.774 609.215H118.057L96.664 575.379L95.863 572.614V555.227H106.211V571.116L131.821 611.624L127.448 619.562Z" fill="white"/>
<path d="M114.81 537.8H67.1895V548.148H114.81V537.8Z" fill="white"/>
</g>
<g clip-path="url(#clip20_0_1)">
<path d="M409 541.422V624.563L337 666.142L265 624.563V541.422L337 499.86L409 541.422Z" fill="#0091FF"/>
<path d="M337 499.86L265 541.422L337 583.001V583V499.859V499.86Z" fill="#26A1FF"/>
<path d="M337 582.999L265 624.561L337 666.141V583" fill="#0081FF"/>
<path d="M409 541.422L337 583.001L409 624.563V624.561V541.422Z" fill="#0075FF"/>
<path d="M337 499.859V583L409 541.422L337 499.86" fill="#1C89FF"/>
<path d="M337 583.001V666.14L409 624.561L337 583" fill="#0061FF"/>
<path d="M337.002 542.398L372.162 562.691L381.356 557.38L337.002 531.782L292.646 557.38L301.841 562.691L337.002 542.398Z" fill="white"/>
<path d="M336.998 623.603L301.838 603.31L292.644 608.62L336.998 634.219L381.353 608.62L372.159 603.31L336.998 623.603Z" fill="white"/>
<path d="M351.532 587.464H322.468V597.811H351.532V587.464Z" fill="white"/>
<path d="M351.532 568.19H322.468V578.538H351.532V568.19Z" fill="white"/>
</g>
<g clip-path="url(#clip21_0_1)">
<path d="M655 541.422V624.563L583 666.142L511 624.563V541.422L583 499.86L655 541.422Z" fill="#0091FF"/>
<path d="M583 499.86L511 541.422L583 583.001V583V499.859V499.86Z" fill="#26A1FF"/>
<path d="M583 582.999L511 624.561L583 666.141V583" fill="#0081FF"/>
<path d="M655 541.422L583 583.001L655 624.563V624.561V541.422Z" fill="#0075FF"/>
<path d="M583 499.859V583L655 541.422L583 499.86" fill="#1C89FF"/>
<path d="M583 583.001V666.14L655 624.561L583 583" fill="#0061FF"/>
<path d="M604.207 564.785L588.173 574.04V542.037L561.793 526.81L535.412 542.037V585.988L561.793 601.222L577.825 591.963V623.963L604.207 639.198L630.588 623.963V580.014L604.207 564.785ZM620.24 585.988V596.431L604.206 605.686L588.173 596.432V585.989L604.207 576.732L620.24 585.988ZM561.793 538.757L577.825 548.012V558.456L561.793 567.71L545.76 558.457V548.012L561.793 538.757ZM561.793 589.273L545.76 580.014V570.404L561.793 579.657L577.825 570.404V580.014L561.793 589.273ZM604.207 627.249L588.173 617.99V608.38L604.206 617.634L620.24 608.379V617.99L604.207 627.249Z" fill="white"/>
</g>
<g clip-path="url(#clip22_0_1)">
<path d="M901 541.422V624.563L829 666.142L757 624.563V541.422L829 499.86L901 541.422Z" fill="#0091FF"/>
<path d="M829 499.86L757 541.422L829 583.001V583V499.859V499.86Z" fill="#26A1FF"/>
<path d="M829 582.999L757 624.561L829 666.141V583" fill="#0081FF"/>
<path d="M901 541.422L829 583.001L901 624.563V624.561V541.422Z" fill="#0075FF"/>
<path d="M829 499.859V583L901 541.422L829 499.86" fill="#1C89FF"/>
<path d="M829 583.001V666.14L901 624.561L829 583" fill="#0061FF"/>
<path d="M844.659 631.326H813.341V616.467L807.848 613.294L794.979 620.724L779.319 593.602L792.188 586.173V579.828L779.319 572.399L794.979 545.276L807.843 552.705L813.341 549.531V534.675H844.659V549.531L850.157 552.705L863.022 545.276L878.68 572.399L865.813 579.828V586.173L878.68 593.602L863.022 620.725L850.152 613.295L844.659 616.468V631.326ZM823.689 620.979H834.312V610.494L850.152 601.346L859.233 606.59L864.545 597.39L855.465 592.147V573.855L864.545 568.612L859.233 559.412L850.157 564.654L834.312 555.505V545.023H823.689V555.505L807.843 564.653L798.766 559.412L793.454 568.612L802.535 573.854V592.147L793.454 597.39L798.767 606.59L807.848 601.346L823.689 610.493V620.979Z" fill="white"/>
<path d="M837.59 587.959L829 592.919L820.41 587.959V578.04L829 573.082L837.59 578.04V587.959Z" fill="white"/>
</g>
<g clip-path="url(#clip23_0_1)">
<path d="M1147 541.422V624.563L1075 666.142L1003 624.563V541.422L1075 499.86L1147 541.422Z" fill="#0091FF"/>
<path d="M1075 499.86L1003 541.422L1075 583.001V583V499.859V499.86Z" fill="#26A1FF"/>
<path d="M1075 582.999L1003 624.561L1075 666.141V583" fill="#0081FF"/>
<path d="M1147 541.422L1075 583.001L1147 624.563V624.561V541.422Z" fill="#0075FF"/>
<path d="M1075 499.859V583L1147 541.422L1075 499.86" fill="#1C89FF"/>
<path d="M1075 583.001V666.14L1147 624.561L1075 583" fill="#0061FF"/>
<path d="M1069.61 575.882H1115.24V565.534H1050.5C1048.62 565.527 1046.82 564.774 1045.49 563.44C1044.16 562.105 1043.41 560.299 1043.41 558.415C1043.41 556.532 1044.16 554.725 1045.49 553.39C1046.82 552.056 1048.62 551.303 1050.5 551.296H1096.13V540.949H1050.5C1048.21 540.943 1045.93 541.391 1043.81 542.266C1041.68 543.142 1039.75 544.427 1038.13 546.05C1036.5 547.672 1035.21 549.6 1034.33 551.721C1033.45 553.843 1032.99 556.118 1032.99 558.415C1032.99 560.713 1033.45 562.987 1034.33 565.109C1035.21 567.231 1036.5 569.158 1038.13 570.781C1039.75 572.403 1041.68 573.689 1043.81 574.564C1045.93 575.44 1048.21 575.887 1050.5 575.882H1053.68C1052.67 578.119 1052.15 580.546 1052.15 583C1052.15 585.455 1052.67 587.882 1053.68 590.119H1050.5C1045.87 590.119 1041.43 591.959 1038.15 595.235C1034.88 598.511 1033.04 602.953 1033.04 607.586C1033.04 612.218 1034.88 616.661 1038.15 619.937C1041.43 623.212 1045.87 625.053 1050.5 625.053H1096.13V614.705H1050.5C1048.62 614.698 1046.82 613.945 1045.49 612.611C1044.16 611.276 1043.41 609.469 1043.41 607.586C1043.41 605.702 1044.16 603.896 1045.49 602.561C1046.82 601.227 1048.62 600.474 1050.5 600.467H1115.24V590.119H1069.61C1068.68 590.123 1067.75 589.941 1066.88 589.585C1066.01 589.229 1065.23 588.705 1064.56 588.044C1063.9 587.382 1063.37 586.596 1063.01 585.731C1062.65 584.865 1062.47 583.938 1062.47 583C1062.47 582.063 1062.65 581.136 1063.01 580.27C1063.37 579.405 1063.9 578.619 1064.56 577.957C1065.23 577.296 1066.01 576.772 1066.88 576.416C1067.75 576.06 1068.68 575.878 1069.61 575.882Z" fill="white"/>
</g>
<g clip-path="url(#clip24_0_1)">
<path d="M1393 541.422V624.563L1321 666.142L1249 624.563V541.422L1321 499.86L1393 541.422Z" fill="#0091FF"/>
<path d="M1321 499.86L1249 541.422L1321 583.001V583V499.859V499.86Z" fill="#26A1FF"/>
<path d="M1321 582.999L1249 624.561L1321 666.141V583" fill="#0081FF"/>
<path d="M1393 541.422L1321 583.001L1393 624.563V624.561V541.422Z" fill="#0075FF"/>
<path d="M1321 499.859V583L1393 541.422L1321 499.86" fill="#1C89FF"/>
<path d="M1321 583.001V666.14L1393 624.561L1321 583" fill="#0061FF"/>
<path d="M1360.25 543.748H1304.47V566.467H1281.75V622.252H1337.53V599.533H1360.25L1360.25 543.748ZM1327.19 611.905H1292.09V576.815H1304.47V599.533H1327.19L1327.19 611.905ZM1327.19 589.185H1314.81V576.814H1327.19L1327.19 589.185ZM1349.91 589.185H1337.53V566.467H1314.81V554.095H1349.91L1349.91 589.185Z" fill="white"/>
</g>
<g clip-path="url(#clip25_0_1)">
<path d="M1639 541.422V624.563L1567 666.142L1495 624.563V541.422L1567 499.86L1639 541.422Z" fill="#0091FF"/>
<path d="M1567 499.86L1495 541.422L1567 583.001V583V499.859V499.86Z" fill="#26A1FF"/>
<path d="M1567 582.999L1495 624.561L1567 666.141V583" fill="#0081FF"/>
<path d="M1639 541.422L1567 583.001L1639 624.563V624.561V541.422Z" fill="#0075FF"/>
<path d="M1567 499.859V583L1639 541.422L1567 499.86" fill="#1C89FF"/>
<path d="M1567 583.001V666.14L1639 624.561L1567 583" fill="#0061FF"/>
<path d="M1610.72 539.279H1561.83V577.827H1523.28V626.721H1572.17V588.174H1610.72V539.279ZM1600.37 549.627V558.553H1572.17V549.627H1600.37ZM1533.63 616.374V607.447H1561.83V616.374H1533.63ZM1561.83 597.1H1533.63V588.174H1561.83V597.1ZM1572.17 577.827V568.9H1600.37V577.827L1572.17 577.827Z" fill="white"/>
</g>
<g clip-path="url(#clip26_0_1)">
<path d="M1885 541.422V624.563L1813 666.142L1741 624.563V541.422L1813 499.86L1885 541.422Z" fill="#0091FF"/>
<path d="M1813 499.86L1741 541.422L1813 583.001V583V499.859V499.86Z" fill="#26A1FF"/>
<path d="M1813 582.999L1741 624.561L1813 666.141V583" fill="#0081FF"/>
<path d="M1885 541.422L1813 583.001L1885 624.563V624.561V541.422Z" fill="#0075FF"/>
<path d="M1813 499.859V583L1885 541.422L1813 499.86" fill="#1C89FF"/>
<path d="M1813 583.001V666.14L1885 624.561L1813 583" fill="#0061FF"/>
<path d="M1834.84 613.83H1778.33V603.482H1834.84C1836.87 603.482 1838.82 602.676 1840.26 601.241C1841.69 599.805 1842.5 597.858 1842.5 595.829C1842.5 593.799 1841.69 591.852 1840.26 590.417C1838.82 588.981 1836.87 588.175 1834.84 588.175H1791.16C1786.38 588.175 1781.8 586.278 1778.43 582.902C1775.05 579.526 1773.15 574.947 1773.15 570.173C1773.15 565.399 1775.05 560.82 1778.43 557.444C1781.8 554.068 1786.38 552.171 1791.16 552.171H1847.67V562.519H1791.16C1790.15 562.515 1789.15 562.71 1788.22 563.093C1787.29 563.476 1786.44 564.04 1785.72 564.751C1785.01 565.462 1784.44 566.307 1784.06 567.237C1783.67 568.168 1783.47 569.165 1783.47 570.173C1783.47 571.18 1783.67 572.178 1784.06 573.108C1784.44 574.039 1785.01 574.884 1785.72 575.595C1786.44 576.306 1787.29 576.869 1788.22 577.252C1789.15 577.635 1790.15 577.831 1791.16 577.827H1834.84C1837.21 577.822 1839.56 578.283 1841.75 579.185C1843.94 580.087 1845.92 581.412 1847.6 583.085C1849.28 584.757 1850.61 586.743 1851.51 588.93C1852.42 591.117 1852.89 593.461 1852.89 595.828C1852.89 598.196 1852.42 600.54 1851.51 602.727C1850.61 604.914 1849.28 606.9 1847.6 608.572C1845.92 610.244 1843.94 611.569 1841.75 612.472C1839.56 613.374 1837.21 613.836 1834.84 613.83Z" fill="white"/>
</g>
<g clip-path="url(#clip27_0_1)">
<path d="M2130.73 541.718V624.859L2058.73 666.438L1986.73 624.859V541.718L2058.73 500.157L2130.73 541.718Z" fill="#ED4842"/>
<path d="M2058.73 500.157L1986.73 541.718L2058.73 583.297V500.155V500.157Z" fill="#F0635E"/>
<path d="M2058.73 583.297L1986.73 624.859L2058.73 666.438V583.297Z" fill="#E11917"/>
<path d="M2130.73 541.718L2058.73 583.297L2130.73 624.859V541.718Z" fill="#E52824"/>
<path d="M2058.73 500.155V583.297L2130.73 541.718L2058.73 500.157" fill="#E93634"/>
<path d="M2058.73 583.297V666.438L2130.73 624.859L2058.73 583.297Z" fill="#D30E0D"/>
<path d="M2059 542.398L2094.16 562.691L2103.36 557.38L2059 531.782L2014.65 557.38L2023.84 562.691L2059 542.398Z" fill="white"/>
<path d="M2059 623.603L2023.84 603.31L2014.64 608.62L2059 634.219L2103.35 608.62L2094.16 603.31L2059 623.603Z" fill="white"/>
<path d="M2073.53 587.464H2044.47V597.811H2073.53V587.464Z" fill="white"/>
<path d="M2073.53 568.19H2044.47V578.538H2073.53V568.19Z" fill="white"/>
</g>
<g clip-path="url(#clip28_0_1)">
<path d="M2376.73 541.718V624.859L2304.73 666.438L2232.73 624.859V541.718L2304.73 500.157L2376.73 541.718Z" fill="#ED4842"/>
<path d="M2304.73 500.157L2232.73 541.718L2304.73 583.297V500.155V500.157Z" fill="#F0635E"/>
<path d="M2304.73 583.297L2232.73 624.859L2304.73 666.438V583.297Z" fill="#E11917"/>
<path d="M2376.73 541.718L2304.73 583.297L2376.73 624.859V541.718Z" fill="#E52824"/>
<path d="M2304.73 500.155V583.297L2376.73 541.718L2304.73 500.157" fill="#E93634"/>
<path d="M2304.73 583.297V666.438L2376.73 624.859L2304.73 583.297Z" fill="#D30E0D"/>
<path d="M2326.21 564.785L2310.17 574.04V542.037L2283.79 526.81L2257.41 542.037V585.988L2283.79 601.222L2299.83 591.963V623.963L2326.21 639.198L2352.59 623.963V580.014L2326.21 564.785ZM2342.24 585.988V596.431L2326.21 605.686L2310.17 596.432V585.989L2326.21 576.732L2342.24 585.988ZM2283.79 538.757L2299.83 548.012V558.456L2283.79 567.71L2267.76 558.457V548.012L2283.79 538.757ZM2283.79 589.273L2267.76 580.014V570.404L2283.79 579.657L2299.83 570.404V580.014L2283.79 589.273ZM2326.21 627.249L2310.17 617.99V608.38L2326.21 617.634L2342.24 608.379V617.99L2326.21 627.249Z" fill="white"/>
</g>
<g clip-path="url(#clip29_0_1)">
<path d="M162.732 787.718V870.859L90.731 912.438L18.732 870.859V787.718L90.731 746.157L162.732 787.718Z" fill="#ED4842"/>
<path d="M90.731 746.157L18.732 787.718L90.731 829.297V746.155V746.157Z" fill="#F0635E"/>
<path d="M90.731 829.297L18.732 870.859L90.731 912.438V829.297Z" fill="#E11917"/>
<path d="M162.732 787.718L90.731 829.297L162.732 870.859V787.718Z" fill="#E52824"/>
<path d="M90.731 746.155V829.297L162.732 787.718L90.731 746.157" fill="#E93634"/>
<path d="M90.731 829.297V912.438L162.732 870.859L90.731 829.297Z" fill="#D30E0D"/>
<path d="M106.659 877.326H75.3408V862.467L69.8477 859.294L56.9785 866.724L41.3193 839.602L54.1875 832.173V825.828L41.3193 818.399L56.9785 791.276L69.8428 798.705L75.3408 795.531V780.675H106.659V795.531L112.157 798.705L125.022 791.276L140.68 818.399L127.813 825.828V832.173L140.68 839.602L125.022 866.725L112.152 859.295L106.659 862.468V877.326ZM85.6885 866.979H96.3115V856.494L112.152 847.346L121.233 852.59L126.545 843.39L117.465 838.147V819.855L126.545 814.612L121.233 805.412L112.157 810.654L96.3115 801.505V791.023H85.6885V801.505L69.8428 810.653L60.7656 805.412L55.4541 814.612L64.5352 819.854V838.147L55.4541 843.39L60.7666 852.59L69.8477 847.346L85.6885 856.493V866.979Z" fill="white"/>
<path d="M99.59 833.959L91 838.919L82.41 833.959V824.04L91 819.082L99.59 824.04V833.959Z" fill="white"/>
</g>
<g clip-path="url(#clip30_0_1)">
<path d="M408.732 787.718V870.859L336.731 912.438L264.732 870.859V787.718L336.731 746.157L408.732 787.718Z" fill="#ED4842"/>
<path d="M336.731 746.157L264.732 787.718L336.731 829.297V746.155V746.157Z" fill="#F0635E"/>
<path d="M336.731 829.297L264.732 870.859L336.731 912.438V829.297Z" fill="#E11917"/>
<path d="M408.732 787.718L336.731 829.297L408.732 870.859V787.718Z" fill="#E52824"/>
<path d="M336.731 746.155V829.297L408.732 787.718L336.731 746.157" fill="#E93634"/>
<path d="M336.731 829.297V912.438L408.732 870.859L336.731 829.297Z" fill="#D30E0D"/>
<path d="M331.613 821.882H377.239V811.534H312.503C310.619 811.527 308.815 810.774 307.486 809.44C306.157 808.105 305.41 806.299 305.41 804.415C305.41 802.531 306.157 800.725 307.486 799.39C308.815 798.056 310.619 797.303 312.503 797.296H358.129V786.949H312.503C310.206 786.943 307.93 787.391 305.806 788.266C303.682 789.142 301.751 790.427 300.125 792.05C298.499 793.672 297.208 795.6 296.328 797.721C295.448 799.843 294.995 802.118 294.995 804.415C294.995 806.712 295.448 808.987 296.328 811.109C297.208 813.231 298.499 815.158 300.125 816.781C301.751 818.403 303.682 819.689 305.806 820.564C307.93 821.44 310.206 821.887 312.503 821.882H315.68C314.67 824.119 314.148 826.546 314.148 829C314.148 831.455 314.67 833.882 315.68 836.119H312.503C307.87 836.119 303.428 837.959 300.152 841.235C296.876 844.511 295.036 848.953 295.036 853.586C295.036 858.218 296.876 862.661 300.152 865.937C303.428 869.212 307.87 871.053 312.503 871.053H358.129V860.705H312.503C310.619 860.698 308.815 859.945 307.486 858.611C306.157 857.276 305.41 855.469 305.41 853.586C305.41 851.702 306.157 849.896 307.486 848.561C308.815 847.227 310.619 846.474 312.503 846.467H377.239V836.119H331.613C330.676 836.123 329.748 835.941 328.881 835.585C328.014 835.229 327.226 834.705 326.562 834.044C325.899 833.382 325.372 832.596 325.012 831.731C324.653 830.865 324.468 829.937 324.468 829C324.468 828.063 324.653 827.135 325.012 826.27C325.372 825.405 325.899 824.619 326.562 823.957C327.226 823.296 328.014 822.772 328.881 822.416C329.748 822.06 330.676 821.878 331.613 821.882Z" fill="white"/>
</g>
<g clip-path="url(#clip31_0_1)">
<path d="M654.732 787.718V870.859L582.731 912.438L510.732 870.859V787.718L582.731 746.157L654.732 787.718Z" fill="#ED4842"/>
<path d="M582.731 746.157L510.732 787.718L582.731 829.297V746.155V746.157Z" fill="#F0635E"/>
<path d="M582.731 829.297L510.732 870.859L582.731 912.438V829.297Z" fill="#E11917"/>
<path d="M654.732 787.718L582.731 829.297L654.732 870.859V787.718Z" fill="#E52824"/>
<path d="M582.731 746.155V829.297L654.732 787.718L582.731 746.157" fill="#E93634"/>
<path d="M582.731 829.297V912.438L654.732 870.859L582.731 829.297Z" fill="#D30E0D"/>
<path d="M626.72 785.279H577.826V823.827H539.278V872.721H588.174V834.174H626.72V785.279ZM616.373 795.627V804.553H588.174V795.627H616.373ZM549.626 862.374V853.447H577.826V862.374H549.626ZM577.826 843.1H549.626V834.174H577.826V843.1ZM588.174 823.827V814.9H616.373V823.827L588.174 823.827Z" fill="white"/>
</g>
<g clip-path="url(#clip32_0_1)">
<path d="M900.732 787.718V870.859L828.731 912.438L756.732 870.859V787.718L828.731 746.157L900.732 787.718Z" fill="#ED4842"/>
<path d="M828.731 746.157L756.732 787.718L828.731 829.297V746.155V746.157Z" fill="#F0635E"/>
<path d="M828.731 829.297L756.732 870.859L828.731 912.438V829.297Z" fill="#E11917"/>
<path d="M900.732 787.718L828.731 829.297L900.732 870.859V787.718Z" fill="#E52824"/>
<path d="M828.731 746.155V829.297L900.732 787.718L828.731 746.157" fill="#E93634"/>
<path d="M828.731 829.297V912.438L900.732 870.859L828.731 829.297Z" fill="#D30E0D"/>
<path d="M850.845 859.83H794.327V849.482H850.845C852.875 849.482 854.821 848.676 856.257 847.241C857.692 845.805 858.498 843.858 858.498 841.829C858.498 839.799 857.692 837.852 856.257 836.417C854.821 834.981 852.875 834.175 850.845 834.175H807.155C802.381 834.175 797.802 832.278 794.426 828.902C791.05 825.526 789.154 820.947 789.154 816.173C789.154 811.399 791.05 806.82 794.426 803.444C797.802 800.068 802.381 798.171 807.155 798.171H863.673V808.519H807.155C806.148 808.515 805.149 808.71 804.218 809.093C803.286 809.476 802.439 810.04 801.725 810.751C801.011 811.462 800.445 812.307 800.059 813.237C799.672 814.168 799.473 815.165 799.473 816.173C799.473 817.18 799.672 818.178 800.059 819.108C800.445 820.039 801.011 820.884 801.725 821.595C802.439 822.306 803.286 822.869 804.218 823.252C805.149 823.635 806.148 823.831 807.155 823.827H850.845C853.212 823.822 855.558 824.283 857.746 825.185C859.935 826.087 861.925 827.412 863.601 829.085C865.277 830.757 866.607 832.743 867.514 834.93C868.421 837.117 868.888 839.461 868.888 841.828C868.888 844.196 868.421 846.54 867.514 848.727C866.607 850.914 865.277 852.9 863.601 854.572C861.925 856.244 859.935 857.569 857.746 858.472C855.558 859.374 853.212 859.836 850.845 859.83Z" fill="white"/>
</g>
<defs>
<clipPath id="clip0_0_1">
<rect width="182" height="182" fill="white"/>
</clipPath>
<clipPath id="clip1_0_1">
<rect width="182" height="182" fill="white" transform="translate(246)"/>
</clipPath>
<clipPath id="clip2_0_1">
<rect width="182" height="182" fill="white" transform="translate(492)"/>
</clipPath>
<clipPath id="clip3_0_1">
<rect width="182" height="182" fill="white" transform="translate(984)"/>
</clipPath>
<clipPath id="clip4_0_1">
<rect width="182" height="182" fill="white" transform="translate(1230)"/>
</clipPath>
<clipPath id="clip5_0_1">
<rect width="182" height="182" fill="white" transform="translate(1476)"/>
</clipPath>
<clipPath id="clip6_0_1">
<rect width="182" height="182" fill="white" transform="translate(1722)"/>
</clipPath>
<clipPath id="clip7_0_1">
<rect width="182" height="182" fill="white" transform="translate(1968)"/>
</clipPath>
<clipPath id="clip8_0_1">
<rect width="182" height="182" fill="white" transform="translate(2214)"/>
</clipPath>
<clipPath id="clip9_0_1">
<rect width="182" height="182" fill="white" transform="translate(0 246)"/>
</clipPath>
<clipPath id="clip10_0_1">
<rect width="182" height="182" fill="white" transform="translate(246 246)"/>
</clipPath>
<clipPath id="clip11_0_1">
<rect width="182" height="182" fill="white" transform="translate(492 246)"/>
</clipPath>
<clipPath id="clip12_0_1">
<rect width="182" height="182" fill="white" transform="translate(738 246)"/>
</clipPath>
<clipPath id="clip13_0_1">
<rect width="182" height="182" fill="white" transform="translate(984 246)"/>
</clipPath>
<clipPath id="clip14_0_1">
<rect width="182" height="182" fill="white" transform="translate(1230 246)"/>
</clipPath>
<clipPath id="clip15_0_1">
<rect width="182" height="182" fill="white" transform="translate(1476 246)"/>
</clipPath>
<clipPath id="clip16_0_1">
<rect width="182" height="182" fill="white" transform="translate(1722 246)"/>
</clipPath>
<clipPath id="clip17_0_1">
<rect width="182" height="182" fill="white" transform="translate(1968 246)"/>
</clipPath>
<clipPath id="clip18_0_1">
<rect width="182" height="182" fill="white" transform="translate(2214 246)"/>
</clipPath>
<clipPath id="clip19_0_1">
<rect width="182" height="182" fill="white" transform="translate(0 492)"/>
</clipPath>
<clipPath id="clip20_0_1">
<rect width="182" height="182" fill="white" transform="translate(246 492)"/>
</clipPath>
<clipPath id="clip21_0_1">
<rect width="182" height="182" fill="white" transform="translate(492 492)"/>
</clipPath>
<clipPath id="clip22_0_1">
<rect width="182" height="182" fill="white" transform="translate(738 492)"/>
</clipPath>
<clipPath id="clip23_0_1">
<rect width="182" height="182" fill="white" transform="translate(984 492)"/>
</clipPath>
<clipPath id="clip24_0_1">
<rect width="182" height="182" fill="white" transform="translate(1230 492)"/>
</clipPath>
<clipPath id="clip25_0_1">
<rect width="182" height="182" fill="white" transform="translate(1476 492)"/>
</clipPath>
<clipPath id="clip26_0_1">
<rect width="182" height="182" fill="white" transform="translate(1722 492)"/>
</clipPath>
<clipPath id="clip27_0_1">
<rect width="182" height="182" fill="white" transform="translate(1968 492)"/>
</clipPath>
<clipPath id="clip28_0_1">
<rect width="182" height="182" fill="white" transform="translate(2214 492)"/>
</clipPath>
<clipPath id="clip29_0_1">
<rect width="182" height="182" fill="white" transform="translate(0 738)"/>
</clipPath>
<clipPath id="clip30_0_1">
<rect width="182" height="182" fill="white" transform="translate(246 738)"/>
</clipPath>
<clipPath id="clip31_0_1">
<rect width="182" height="182" fill="white" transform="translate(492 738)"/>
</clipPath>
<clipPath id="clip32_0_1">
<rect width="182" height="182" fill="white" transform="translate(738 738)"/>
</clipPath>
</defs>
</svg>
